%TF.GenerationSoftware,KiCad,Pcbnew,(6.0.4)*%
%TF.CreationDate,2022-04-04T20:05:43+03:00*%
%TF.ProjectId,volvo_bt_board,766f6c76-6f5f-4627-945f-626f6172642e,rev?*%
%TF.SameCoordinates,Original*%
%TF.FileFunction,Copper,L2,Bot*%
%TF.FilePolarity,Positive*%
%FSLAX46Y46*%
G04 Gerber Fmt 4.6, Leading zero omitted, Abs format (unit mm)*
G04 Created by KiCad (PCBNEW (6.0.4)) date 2022-04-04 20:05:43*
%MOMM*%
%LPD*%
G01*
G04 APERTURE LIST*
%TA.AperFunction,ComponentPad*%
%ADD10C,4.000000*%
%TD*%
%TA.AperFunction,ComponentPad*%
%ADD11R,1.600000X1.600000*%
%TD*%
%TA.AperFunction,ComponentPad*%
%ADD12C,1.600000*%
%TD*%
%TA.AperFunction,ComponentPad*%
%ADD13R,1.700000X1.700000*%
%TD*%
%TA.AperFunction,ComponentPad*%
%ADD14O,1.600000X1.600000*%
%TD*%
%TA.AperFunction,ComponentPad*%
%ADD15C,1.879600*%
%TD*%
%TA.AperFunction,ComponentPad*%
%ADD16O,1.700000X1.700000*%
%TD*%
%TA.AperFunction,ComponentPad*%
%ADD17R,1.560000X1.560000*%
%TD*%
%TA.AperFunction,ComponentPad*%
%ADD18C,1.560000*%
%TD*%
%TA.AperFunction,ViaPad*%
%ADD19C,2.000000*%
%TD*%
%TA.AperFunction,Conductor*%
%ADD20C,1.000000*%
%TD*%
G04 APERTURE END LIST*
D10*
%TO.P,J1,0*%
%TO.N,N/C*%
X80770331Y-73450000D03*
X80770331Y-48450000D03*
D11*
%TO.P,J1,1,1*%
%TO.N,MELBUS_CLK*%
X82190331Y-55410000D03*
D12*
%TO.P,J1,2,2*%
%TO.N,GND*%
X82190331Y-58180000D03*
%TO.P,J1,3,3*%
%TO.N,12V*%
X82190331Y-60950000D03*
%TO.P,J1,4,4*%
%TO.N,unconnected-(J1-Pad4)*%
X82190331Y-63720000D03*
%TO.P,J1,5,5*%
%TO.N,AUDIO_R*%
X82190331Y-66490000D03*
%TO.P,J1,6,6*%
%TO.N,MELBUS_DATA*%
X79350331Y-56795000D03*
%TO.P,J1,7,7*%
%TO.N,MELBUS_BUSY*%
X79350331Y-59565000D03*
%TO.P,J1,8,8*%
%TO.N,AUDIO_L*%
X79350331Y-62335000D03*
%TO.P,J1,9,9*%
%TO.N,AUDIO_GND*%
X79350331Y-65105000D03*
%TD*%
D13*
%TO.P,J9,1,Pin_1*%
%TO.N,5V*%
X137160000Y-73660000D03*
%TD*%
%TO.P,J6,1,Pin_1*%
%TO.N,12V*%
X111760000Y-73660000D03*
%TD*%
%TO.P,J7,1,Pin_1*%
%TO.N,GND*%
X111760000Y-58420000D03*
%TD*%
D11*
%TO.P,A1,1,D1/TX*%
%TO.N,Net-(A1-Pad1)*%
X180350000Y-95250000D03*
D14*
%TO.P,A1,2,D0/RX*%
%TO.N,unconnected-(A1-Pad2)*%
X180350000Y-97790000D03*
%TO.P,A1,3,~{RESET}*%
%TO.N,ARDUINO_RESET*%
X180350000Y-100330000D03*
%TO.P,A1,4,GND*%
%TO.N,GND*%
X180350000Y-102870000D03*
%TO.P,A1,5,D2*%
%TO.N,MELBUS_CLK*%
X180350000Y-105410000D03*
%TO.P,A1,6,D3*%
%TO.N,MELBUS_DATA*%
X180350000Y-107950000D03*
%TO.P,A1,7,D4*%
%TO.N,MELBUS_BUSY*%
X180350000Y-110490000D03*
%TO.P,A1,8,D5*%
%TO.N,Net-(A1-Pad8)*%
X180350000Y-113030000D03*
%TO.P,A1,9,D6*%
%TO.N,unconnected-(A1-Pad9)*%
X180350000Y-115570000D03*
%TO.P,A1,10,D7*%
%TO.N,unconnected-(A1-Pad10)*%
X180350000Y-118110000D03*
%TO.P,A1,11,D8*%
%TO.N,unconnected-(A1-Pad11)*%
X180350000Y-120650000D03*
%TO.P,A1,12,D9*%
%TO.N,unconnected-(A1-Pad12)*%
X180350000Y-123190000D03*
%TO.P,A1,13,D10*%
%TO.N,unconnected-(A1-Pad13)*%
X180350000Y-125730000D03*
%TO.P,A1,14,D11*%
%TO.N,unconnected-(A1-Pad14)*%
X180350000Y-128270000D03*
%TO.P,A1,15,D12*%
%TO.N,unconnected-(A1-Pad15)*%
X180350000Y-130810000D03*
%TO.P,A1,16,D13*%
%TO.N,unconnected-(A1-Pad16)*%
X195590000Y-130810000D03*
%TO.P,A1,17,3V3*%
%TO.N,unconnected-(A1-Pad17)*%
X195590000Y-128270000D03*
%TO.P,A1,18,AREF*%
%TO.N,unconnected-(A1-Pad18)*%
X195590000Y-125730000D03*
%TO.P,A1,19,A0*%
%TO.N,unconnected-(A1-Pad19)*%
X195590000Y-123190000D03*
%TO.P,A1,20,A1*%
%TO.N,unconnected-(A1-Pad20)*%
X195590000Y-120650000D03*
%TO.P,A1,21,A2*%
%TO.N,unconnected-(A1-Pad21)*%
X195590000Y-118110000D03*
%TO.P,A1,22,A3*%
%TO.N,unconnected-(A1-Pad22)*%
X195590000Y-115570000D03*
%TO.P,A1,23,A4*%
%TO.N,unconnected-(A1-Pad23)*%
X195590000Y-113030000D03*
%TO.P,A1,24,A5*%
%TO.N,unconnected-(A1-Pad24)*%
X195590000Y-110490000D03*
%TO.P,A1,25,A6*%
%TO.N,unconnected-(A1-Pad25)*%
X195590000Y-107950000D03*
%TO.P,A1,26,A7*%
%TO.N,unconnected-(A1-Pad26)*%
X195590000Y-105410000D03*
%TO.P,A1,27,+5V*%
%TO.N,5V*%
X195590000Y-102870000D03*
%TO.P,A1,28,~{RESET}*%
%TO.N,unconnected-(A1-Pad28)*%
X195590000Y-100330000D03*
%TO.P,A1,29,GND*%
%TO.N,GND*%
X195590000Y-97790000D03*
%TO.P,A1,30,VIN*%
%TO.N,unconnected-(A1-Pad30)*%
X195590000Y-95250000D03*
%TD*%
D15*
%TO.P,J4,1,Pin_1*%
%TO.N,Net-(J2-Pad4)*%
X93345000Y-130810000D03*
%TO.P,J4,2,Pin_2*%
%TO.N,Net-(J3-Pad2)*%
X93345000Y-133350000D03*
%TD*%
D13*
%TO.P,J3,1,Pin_1*%
%TO.N,5V*%
X101600000Y-120005000D03*
D16*
%TO.P,J3,2,Pin_2*%
%TO.N,Net-(J3-Pad2)*%
X101600000Y-117465000D03*
%TO.P,J3,3,Pin_3*%
%TO.N,GND*%
X101600000Y-114925000D03*
%TO.P,J3,4,Pin_4*%
%TO.N,Net-(J3-Pad4)*%
X101600000Y-112385000D03*
%TO.P,J3,5,Pin_5*%
%TO.N,Net-(J3-Pad5)*%
X101600000Y-109845000D03*
%TO.P,J3,6,Pin_6*%
%TO.N,Net-(J3-Pad6)*%
X101600000Y-107305000D03*
%TO.P,J3,7,Pin_7*%
%TO.N,AUDIO_L*%
X101600000Y-104765000D03*
%TO.P,J3,8,Pin_8*%
%TO.N,AUDIO_GND*%
X101600000Y-102225000D03*
%TO.P,J3,9,Pin_9*%
%TO.N,AUDIO_R*%
X101600000Y-99685000D03*
%TD*%
D15*
%TO.P,B1,GND1,GND*%
%TO.N,GND*%
X155575000Y-104775000D03*
%TO.P,B1,GND2,GND*%
X165735000Y-104775000D03*
%TO.P,B1,HV,HV*%
%TO.N,5V*%
X165735000Y-102235000D03*
%TO.P,B1,HV1,HV_TXO_1*%
%TO.N,unconnected-(B1-PadHV1)*%
X165735000Y-97155000D03*
%TO.P,B1,HV2,HV_RXI_1*%
%TO.N,Net-(A1-Pad1)*%
X165735000Y-99695000D03*
%TO.P,B1,HV3,HV_RXI_2*%
%TO.N,ARDUINO_RESET*%
X165735000Y-107315000D03*
%TO.P,B1,HV4,HV_TXO_2*%
%TO.N,Net-(A1-Pad8)*%
X165735000Y-109855000D03*
%TO.P,B1,LV,LV*%
%TO.N,3V3*%
X155575000Y-102235000D03*
%TO.P,B1,LV1,LV_TXI_1*%
%TO.N,unconnected-(B1-PadLV1)*%
X155575000Y-97155000D03*
%TO.P,B1,LV2,LV_RXO_1*%
%TO.N,Net-(B1-PadLV2)*%
X155575000Y-99695000D03*
%TO.P,B1,LV3,LV_RXO_2*%
%TO.N,Net-(B1-PadLV3)*%
X155575000Y-107315000D03*
%TO.P,B1,LV4,LV_TXI_2*%
%TO.N,Net-(B1-PadLV4)*%
X155575000Y-109855000D03*
%TD*%
D17*
%TO.P,U1,1,3V3*%
%TO.N,3V3*%
X114300000Y-89460000D03*
D18*
%TO.P,U1,2,EN*%
%TO.N,unconnected-(U1-Pad2)*%
X114300000Y-92000000D03*
%TO.P,U1,3,SENSOR_VP*%
%TO.N,unconnected-(U1-Pad3)*%
X114300000Y-94540000D03*
%TO.P,U1,4,SENSOR_VN*%
%TO.N,unconnected-(U1-Pad4)*%
X114300000Y-97080000D03*
%TO.P,U1,5,IO34*%
%TO.N,unconnected-(U1-Pad5)*%
X114300000Y-99620000D03*
%TO.P,U1,6,IO35*%
%TO.N,unconnected-(U1-Pad6)*%
X114300000Y-102160000D03*
%TO.P,U1,7,IO32*%
%TO.N,unconnected-(U1-Pad7)*%
X114300000Y-104700000D03*
%TO.P,U1,8,IO33*%
%TO.N,Net-(J3-Pad6)*%
X114300000Y-107240000D03*
%TO.P,U1,9,IO25*%
%TO.N,Net-(J3-Pad5)*%
X114300000Y-109780000D03*
%TO.P,U1,10,IO26*%
%TO.N,Net-(J3-Pad4)*%
X114300000Y-112320000D03*
%TO.P,U1,11,IO27*%
%TO.N,unconnected-(U1-Pad11)*%
X114300000Y-114860000D03*
%TO.P,U1,12,IO14*%
%TO.N,unconnected-(U1-Pad12)*%
X114300000Y-117400000D03*
%TO.P,U1,13,IO12*%
%TO.N,unconnected-(U1-Pad13)*%
X114300000Y-119940000D03*
%TO.P,U1,14,GND1*%
%TO.N,GND*%
X114300000Y-122480000D03*
%TO.P,U1,15,IO13*%
%TO.N,unconnected-(U1-Pad15)*%
X114300000Y-125020000D03*
%TO.P,U1,16,SD2*%
%TO.N,unconnected-(U1-Pad16)*%
X114300000Y-127560000D03*
%TO.P,U1,17,SD3*%
%TO.N,unconnected-(U1-Pad17)*%
X114300000Y-130100000D03*
%TO.P,U1,18,CMD*%
%TO.N,unconnected-(U1-Pad18)*%
X114300000Y-132640000D03*
%TO.P,U1,19,EXT_5V*%
%TO.N,5V*%
X114300000Y-135180000D03*
%TO.P,U1,20,GND3*%
%TO.N,GND*%
X139700000Y-89460000D03*
%TO.P,U1,21,IO23*%
%TO.N,unconnected-(U1-Pad21)*%
X139700000Y-92000000D03*
%TO.P,U1,22,IO22*%
%TO.N,unconnected-(U1-Pad22)*%
X139700000Y-94540000D03*
%TO.P,U1,23,TXD0*%
%TO.N,unconnected-(U1-Pad23)*%
X139700000Y-97080000D03*
%TO.P,U1,24,RXD0*%
%TO.N,Net-(J11-Pad2)*%
X139700000Y-99620000D03*
%TO.P,U1,25,IO21*%
%TO.N,unconnected-(U1-Pad25)*%
X139700000Y-102160000D03*
%TO.P,U1,26,GND2*%
%TO.N,GND*%
X139700000Y-104700000D03*
%TO.P,U1,27,IO19*%
%TO.N,unconnected-(U1-Pad27)*%
X139700000Y-107240000D03*
%TO.P,U1,28,IO18*%
%TO.N,unconnected-(U1-Pad28)*%
X139700000Y-109780000D03*
%TO.P,U1,29,IO5*%
%TO.N,unconnected-(U1-Pad29)*%
X139700000Y-112320000D03*
%TO.P,U1,30,IO17*%
%TO.N,Net-(J12-Pad1)*%
X139700000Y-114860000D03*
%TO.P,U1,31,IO16*%
%TO.N,Net-(B1-PadLV4)*%
X139700000Y-117400000D03*
%TO.P,U1,32,IO4*%
%TO.N,unconnected-(U1-Pad32)*%
X139700000Y-119940000D03*
%TO.P,U1,33,IO0*%
%TO.N,unconnected-(U1-Pad33)*%
X139700000Y-122480000D03*
%TO.P,U1,34,IO2*%
%TO.N,unconnected-(U1-Pad34)*%
X139700000Y-125020000D03*
%TO.P,U1,35,IO15*%
%TO.N,unconnected-(U1-Pad35)*%
X139700000Y-127560000D03*
%TO.P,U1,36,SD1*%
%TO.N,unconnected-(U1-Pad36)*%
X139700000Y-130100000D03*
%TO.P,U1,37,SD0*%
%TO.N,unconnected-(U1-Pad37)*%
X139700000Y-132640000D03*
%TO.P,U1,38,CLK*%
%TO.N,unconnected-(U1-Pad38)*%
X139700000Y-135180000D03*
%TD*%
D15*
%TO.P,J5,1,Pin_1*%
%TO.N,Net-(J3-Pad2)*%
X87630000Y-133350000D03*
%TO.P,J5,2,Pin_2*%
%TO.N,Net-(J2-Pad2)*%
X87630000Y-130810000D03*
%TD*%
%TO.P,J11,1,Pin_1*%
%TO.N,Net-(B1-PadLV2)*%
X148590000Y-99695000D03*
%TO.P,J11,2,Pin_2*%
%TO.N,Net-(J11-Pad2)*%
X146050000Y-99695000D03*
%TD*%
D13*
%TO.P,J8,1,Pin_1*%
%TO.N,GND*%
X137160000Y-58420000D03*
%TD*%
D15*
%TO.P,J12,1,Pin_1*%
%TO.N,Net-(J12-Pad1)*%
X146050000Y-114935000D03*
%TO.P,J12,2,Pin_2*%
%TO.N,Net-(B1-PadLV3)*%
X148590000Y-114935000D03*
%TD*%
D13*
%TO.P,J2,1,Pin_1*%
%TO.N,unconnected-(J2-Pad1)*%
X81280000Y-117465000D03*
D16*
%TO.P,J2,2,Pin_2*%
%TO.N,Net-(J2-Pad2)*%
X81280000Y-114925000D03*
%TO.P,J2,3,Pin_3*%
%TO.N,unconnected-(J2-Pad3)*%
X81280000Y-112385000D03*
%TO.P,J2,4,Pin_4*%
%TO.N,Net-(J2-Pad4)*%
X81280000Y-109845000D03*
%TO.P,J2,5,Pin_5*%
%TO.N,unconnected-(J2-Pad5)*%
X81280000Y-107305000D03*
%TO.P,J2,6,Pin_6*%
%TO.N,unconnected-(J2-Pad6)*%
X81280000Y-104765000D03*
%TD*%
D19*
%TO.N,5V*%
X127000000Y-127000000D03*
X146050000Y-73660000D03*
X195580000Y-83820000D03*
X170180000Y-102235000D03*
%TO.N,3V3*%
X151765000Y-89535000D03*
X151765000Y-102235000D03*
%TD*%
D20*
%TO.N,Net-(J2-Pad4)*%
X93345000Y-119380000D02*
X83810000Y-109845000D01*
X83810000Y-109845000D02*
X81280000Y-109845000D01*
X93345000Y-130810000D02*
X93345000Y-119380000D01*
%TO.N,Net-(J2-Pad2)*%
X82482081Y-114925000D02*
X81280000Y-114925000D01*
X87630000Y-120072919D02*
X82482081Y-114925000D01*
X87630000Y-130810000D02*
X87630000Y-120072919D01*
%TO.N,Net-(J3-Pad2)*%
X93345000Y-133350000D02*
X87630000Y-133350000D01*
X95250000Y-133350000D02*
X93345000Y-133350000D01*
X97790000Y-118745000D02*
X97790000Y-130810000D01*
X97790000Y-130810000D02*
X95250000Y-133350000D01*
X99070000Y-117465000D02*
X97790000Y-118745000D01*
X101600000Y-117465000D02*
X99070000Y-117465000D01*
%TO.N,AUDIO_R*%
X94625000Y-99685000D02*
X94615000Y-99695000D01*
X86995000Y-92075000D02*
X86995000Y-71294669D01*
X86995000Y-71294669D02*
X82190331Y-66490000D01*
X101600000Y-99685000D02*
X94625000Y-99685000D01*
X94615000Y-99695000D02*
X86995000Y-92075000D01*
%TO.N,AUDIO_GND*%
X84455000Y-72390000D02*
X79350331Y-67285331D01*
X79350331Y-67285331D02*
X79350331Y-65105000D01*
X93345000Y-102235000D02*
X84455000Y-93345000D01*
X93355000Y-102225000D02*
X93345000Y-102235000D01*
X101600000Y-102225000D02*
X93355000Y-102225000D01*
X84455000Y-93345000D02*
X84455000Y-72390000D01*
%TO.N,MELBUS_BUSY*%
X77980000Y-59565000D02*
X79350331Y-59565000D01*
X76835000Y-46355000D02*
X76835000Y-58420000D01*
X76835000Y-58420000D02*
X77980000Y-59565000D01*
X78740000Y-44450000D02*
X76835000Y-46355000D01*
X83185000Y-44450000D02*
X78740000Y-44450000D01*
X84455000Y-45720000D02*
X83185000Y-44450000D01*
X177800000Y-45720000D02*
X84455000Y-45720000D01*
X190500000Y-58420000D02*
X177800000Y-45720000D01*
X190500000Y-109220000D02*
X190500000Y-58420000D01*
X189230000Y-110490000D02*
X190500000Y-109220000D01*
X180350000Y-110490000D02*
X189230000Y-110490000D01*
%TO.N,MELBUS_DATA*%
X79350331Y-54634669D02*
X79350331Y-56795000D01*
X85725000Y-48260000D02*
X79350331Y-54634669D01*
X176530000Y-48260000D02*
X85725000Y-48260000D01*
%TO.N,Net-(B1-PadLV3)*%
X151130000Y-107315000D02*
X155575000Y-107315000D01*
X148590000Y-109855000D02*
X151130000Y-107315000D01*
X148590000Y-114935000D02*
X148590000Y-109855000D01*
%TO.N,Net-(B1-PadLV4)*%
X150495000Y-117475000D02*
X155575000Y-112395000D01*
X155575000Y-112395000D02*
X155575000Y-109855000D01*
X150420000Y-117400000D02*
X150495000Y-117475000D01*
X139700000Y-117400000D02*
X150420000Y-117400000D01*
%TO.N,Net-(J12-Pad1)*%
X145975000Y-114860000D02*
X146050000Y-114935000D01*
X139700000Y-114860000D02*
X145975000Y-114860000D01*
%TO.N,AUDIO_L*%
X76835000Y-62865000D02*
X77365000Y-62335000D01*
X76835000Y-89535000D02*
X76835000Y-62865000D01*
X92065000Y-104765000D02*
X76835000Y-89535000D01*
X77365000Y-62335000D02*
X79650331Y-62335000D01*
X101600000Y-104765000D02*
X92065000Y-104765000D01*
%TO.N,5V*%
X101600000Y-129540000D02*
X101600000Y-120005000D01*
X107240000Y-135180000D02*
X101600000Y-129540000D01*
%TO.N,GND*%
X104130000Y-114925000D02*
X101600000Y-114925000D01*
X111685000Y-122480000D02*
X104130000Y-114925000D01*
X114300000Y-122480000D02*
X111685000Y-122480000D01*
%TO.N,Net-(J3-Pad4)*%
X114235000Y-112385000D02*
X114300000Y-112320000D01*
X101600000Y-112385000D02*
X114235000Y-112385000D01*
%TO.N,Net-(J3-Pad5)*%
X114235000Y-109845000D02*
X114300000Y-109780000D01*
X101600000Y-109845000D02*
X114235000Y-109845000D01*
%TO.N,Net-(J3-Pad6)*%
X114235000Y-107305000D02*
X114300000Y-107240000D01*
X101600000Y-107305000D02*
X114235000Y-107305000D01*
%TO.N,5V*%
X118820000Y-135180000D02*
X114300000Y-135180000D01*
X127000000Y-127000000D02*
X118820000Y-135180000D01*
X137160000Y-73660000D02*
X146050000Y-73660000D01*
%TO.N,MELBUS_CLK*%
X82190331Y-54969669D02*
X82190331Y-55410000D01*
X175260000Y-50800000D02*
X86360000Y-50800000D01*
X185420000Y-60960000D02*
X175260000Y-50800000D01*
X86360000Y-50800000D02*
X82190331Y-54969669D01*
X185420000Y-104140000D02*
X185420000Y-60960000D01*
X184150000Y-105410000D02*
X185420000Y-104140000D01*
X180350000Y-105410000D02*
X184150000Y-105410000D01*
%TO.N,MELBUS_DATA*%
X187960000Y-59690000D02*
X176530000Y-48260000D01*
X180350000Y-107950000D02*
X186690000Y-107950000D01*
X186690000Y-107950000D02*
X187960000Y-106680000D01*
X187960000Y-106680000D02*
X187960000Y-59690000D01*
%TO.N,GND*%
X193040000Y-127000000D02*
X186055000Y-133985000D01*
X186055000Y-133985000D02*
X182245000Y-133985000D01*
X193040000Y-100340000D02*
X193040000Y-127000000D01*
X195590000Y-97790000D02*
X193040000Y-100340000D01*
X136600000Y-89460000D02*
X139700000Y-89460000D01*
X132080000Y-93980000D02*
X136600000Y-89460000D01*
X132080000Y-100180000D02*
X132080000Y-93980000D01*
X136600000Y-104700000D02*
X132080000Y-100180000D01*
X160655000Y-86995000D02*
X160655000Y-104775000D01*
X152400000Y-78740000D02*
X160655000Y-86995000D01*
X132080000Y-68580000D02*
X132080000Y-76200000D01*
X134620000Y-78740000D02*
X152400000Y-78740000D01*
X137160000Y-63500000D02*
X132080000Y-68580000D01*
X132080000Y-76200000D02*
X134620000Y-78740000D01*
X137160000Y-58420000D02*
X137160000Y-63500000D01*
%TO.N,12V*%
X82190331Y-60950000D02*
X99050000Y-60950000D01*
X99050000Y-60950000D02*
X111760000Y-73660000D01*
%TO.N,GND*%
X82430331Y-58420000D02*
X82190331Y-58180000D01*
X111760000Y-58420000D02*
X82430331Y-58420000D01*
X111760000Y-58420000D02*
X137160000Y-58420000D01*
X160655000Y-116840000D02*
X160655000Y-104775000D01*
X160655000Y-104775000D02*
X161290000Y-104775000D01*
X182245000Y-133985000D02*
X177800000Y-133985000D01*
X177800000Y-133985000D02*
X160655000Y-116840000D01*
X155575000Y-104775000D02*
X160655000Y-104775000D01*
X161290000Y-104775000D02*
X165735000Y-104775000D01*
%TO.N,Net-(A1-Pad8)*%
X172085000Y-113030000D02*
X180350000Y-113030000D01*
X168910000Y-109855000D02*
X172085000Y-113030000D01*
X165735000Y-109855000D02*
X168910000Y-109855000D01*
%TO.N,ARDUINO_RESET*%
X175895000Y-100330000D02*
X180350000Y-100330000D01*
X168910000Y-107315000D02*
X175895000Y-100330000D01*
X165735000Y-107315000D02*
X168910000Y-107315000D01*
%TO.N,5V*%
X200660000Y-99695000D02*
X197485000Y-102870000D01*
X200660000Y-88900000D02*
X200660000Y-99695000D01*
X195580000Y-83820000D02*
X200660000Y-88900000D01*
X197485000Y-102870000D02*
X195590000Y-102870000D01*
X165735000Y-102235000D02*
X170180000Y-102235000D01*
%TO.N,Net-(A1-Pad1)*%
X172085000Y-99695000D02*
X165735000Y-99695000D01*
X176530000Y-95250000D02*
X172085000Y-99695000D01*
X180350000Y-95250000D02*
X176530000Y-95250000D01*
%TO.N,3V3*%
X123115000Y-80645000D02*
X114300000Y-89460000D01*
X147955000Y-80645000D02*
X123115000Y-80645000D01*
X151765000Y-84455000D02*
X147955000Y-80645000D01*
X151765000Y-89535000D02*
X151765000Y-84455000D01*
X155575000Y-102235000D02*
X151765000Y-102235000D01*
%TO.N,GND*%
X155500000Y-104700000D02*
X155575000Y-104775000D01*
X139700000Y-104700000D02*
X155500000Y-104700000D01*
%TO.N,Net-(B1-PadLV2)*%
X148590000Y-99695000D02*
X155575000Y-99695000D01*
%TO.N,Net-(B1-PadLV4)*%
X155575000Y-110490000D02*
X155575000Y-109855000D01*
%TO.N,Net-(J11-Pad2)*%
X145975000Y-99620000D02*
X146050000Y-99695000D01*
X139700000Y-99620000D02*
X145975000Y-99620000D01*
%TO.N,GND*%
X136600000Y-104700000D02*
X139700000Y-104700000D01*
X127000000Y-114300000D02*
X136600000Y-104700000D01*
X127000000Y-116840000D02*
X127000000Y-114300000D01*
X121360000Y-122480000D02*
X127000000Y-116840000D01*
X114300000Y-122480000D02*
X121360000Y-122480000D01*
%TO.N,5V*%
X114300000Y-135180000D02*
X107240000Y-135180000D01*
%TD*%
M02*
