%TF.GenerationSoftware,KiCad,Pcbnew,(6.0.4)*%
%TF.CreationDate,2022-04-04T20:05:43+03:00*%
%TF.ProjectId,volvo_bt_board,766f6c76-6f5f-4627-945f-626f6172642e,rev?*%
%TF.SameCoordinates,Original*%
%TF.FileFunction,Soldermask,Bot*%
%TF.FilePolarity,Negative*%
%FSLAX46Y46*%
G04 Gerber Fmt 4.6, Leading zero omitted, Abs format (unit mm)*
G04 Created by KiCad (PCBNEW (6.0.4)) date 2022-04-04 20:05:43*
%MOMM*%
%LPD*%
G01*
G04 APERTURE LIST*
%ADD10C,4.000000*%
%ADD11R,1.600000X1.600000*%
%ADD12C,1.600000*%
%ADD13R,1.700000X1.700000*%
%ADD14O,1.600000X1.600000*%
%ADD15C,2.082800*%
%ADD16O,1.700000X1.700000*%
%ADD17R,1.560000X1.560000*%
%ADD18C,1.560000*%
G04 APERTURE END LIST*
D10*
%TO.C,J1*%
X80770331Y-73450000D03*
X80770331Y-48450000D03*
D11*
X82190331Y-55410000D03*
D12*
X82190331Y-58180000D03*
X82190331Y-60950000D03*
X82190331Y-63720000D03*
X82190331Y-66490000D03*
X79350331Y-56795000D03*
X79350331Y-59565000D03*
X79350331Y-62335000D03*
X79350331Y-65105000D03*
%TD*%
D13*
%TO.C,J9*%
X137160000Y-73660000D03*
%TD*%
%TO.C,J6*%
X111760000Y-73660000D03*
%TD*%
%TO.C,J7*%
X111760000Y-58420000D03*
%TD*%
D11*
%TO.C,A1*%
X180350000Y-95250000D03*
D14*
X180350000Y-97790000D03*
X180350000Y-100330000D03*
X180350000Y-102870000D03*
X180350000Y-105410000D03*
X180350000Y-107950000D03*
X180350000Y-110490000D03*
X180350000Y-113030000D03*
X180350000Y-115570000D03*
X180350000Y-118110000D03*
X180350000Y-120650000D03*
X180350000Y-123190000D03*
X180350000Y-125730000D03*
X180350000Y-128270000D03*
X180350000Y-130810000D03*
X195590000Y-130810000D03*
X195590000Y-128270000D03*
X195590000Y-125730000D03*
X195590000Y-123190000D03*
X195590000Y-120650000D03*
X195590000Y-118110000D03*
X195590000Y-115570000D03*
X195590000Y-113030000D03*
X195590000Y-110490000D03*
X195590000Y-107950000D03*
X195590000Y-105410000D03*
X195590000Y-102870000D03*
X195590000Y-100330000D03*
X195590000Y-97790000D03*
X195590000Y-95250000D03*
%TD*%
D15*
%TO.C,J4*%
X93345000Y-130810000D03*
X93345000Y-133350000D03*
%TD*%
D13*
%TO.C,J3*%
X101600000Y-120005000D03*
D16*
X101600000Y-117465000D03*
X101600000Y-114925000D03*
X101600000Y-112385000D03*
X101600000Y-109845000D03*
X101600000Y-107305000D03*
X101600000Y-104765000D03*
X101600000Y-102225000D03*
X101600000Y-99685000D03*
%TD*%
D15*
%TO.C,B1*%
X155575000Y-104775000D03*
X165735000Y-104775000D03*
X165735000Y-102235000D03*
X165735000Y-97155000D03*
X165735000Y-99695000D03*
X165735000Y-107315000D03*
X165735000Y-109855000D03*
X155575000Y-102235000D03*
X155575000Y-97155000D03*
X155575000Y-99695000D03*
X155575000Y-107315000D03*
X155575000Y-109855000D03*
%TD*%
D17*
%TO.C,U1*%
X114300000Y-89460000D03*
D18*
X114300000Y-92000000D03*
X114300000Y-94540000D03*
X114300000Y-97080000D03*
X114300000Y-99620000D03*
X114300000Y-102160000D03*
X114300000Y-104700000D03*
X114300000Y-107240000D03*
X114300000Y-109780000D03*
X114300000Y-112320000D03*
X114300000Y-114860000D03*
X114300000Y-117400000D03*
X114300000Y-119940000D03*
X114300000Y-122480000D03*
X114300000Y-125020000D03*
X114300000Y-127560000D03*
X114300000Y-130100000D03*
X114300000Y-132640000D03*
X114300000Y-135180000D03*
X139700000Y-89460000D03*
X139700000Y-92000000D03*
X139700000Y-94540000D03*
X139700000Y-97080000D03*
X139700000Y-99620000D03*
X139700000Y-102160000D03*
X139700000Y-104700000D03*
X139700000Y-107240000D03*
X139700000Y-109780000D03*
X139700000Y-112320000D03*
X139700000Y-114860000D03*
X139700000Y-117400000D03*
X139700000Y-119940000D03*
X139700000Y-122480000D03*
X139700000Y-125020000D03*
X139700000Y-127560000D03*
X139700000Y-130100000D03*
X139700000Y-132640000D03*
X139700000Y-135180000D03*
%TD*%
D15*
%TO.C,J5*%
X87630000Y-133350000D03*
X87630000Y-130810000D03*
%TD*%
%TO.C,J11*%
X148590000Y-99695000D03*
X146050000Y-99695000D03*
%TD*%
D13*
%TO.C,J8*%
X137160000Y-58420000D03*
%TD*%
D15*
%TO.C,J12*%
X146050000Y-114935000D03*
X148590000Y-114935000D03*
%TD*%
D13*
%TO.C,J2*%
X81280000Y-117465000D03*
D16*
X81280000Y-114925000D03*
X81280000Y-112385000D03*
X81280000Y-109845000D03*
X81280000Y-107305000D03*
X81280000Y-104765000D03*
%TD*%
M02*
