%TF.GenerationSoftware,KiCad,Pcbnew,(6.0.4)*%
%TF.CreationDate,2022-04-04T20:05:43+03:00*%
%TF.ProjectId,volvo_bt_board,766f6c76-6f5f-4627-945f-626f6172642e,rev?*%
%TF.SameCoordinates,Original*%
%TF.FileFunction,Legend,Top*%
%TF.FilePolarity,Positive*%
%FSLAX46Y46*%
G04 Gerber Fmt 4.6, Leading zero omitted, Abs format (unit mm)*
G04 Created by KiCad (PCBNEW (6.0.4)) date 2022-04-04 20:05:43*
%MOMM*%
%LPD*%
G01*
G04 APERTURE LIST*
%ADD10C,0.150000*%
%ADD11C,0.127000*%
%ADD12C,0.152400*%
%ADD13C,0.120000*%
G04 APERTURE END LIST*
D10*
%TO.C,J1*%
X84442711Y-61283333D02*
X85156997Y-61283333D01*
X85299854Y-61330952D01*
X85395092Y-61426190D01*
X85442711Y-61569047D01*
X85442711Y-61664285D01*
X85442711Y-60283333D02*
X85442711Y-60854761D01*
X85442711Y-60569047D02*
X84442711Y-60569047D01*
X84585569Y-60664285D01*
X84680807Y-60759523D01*
X84728426Y-60854761D01*
%TO.C,J9*%
X136826666Y-70342380D02*
X136826666Y-71056666D01*
X136779047Y-71199523D01*
X136683809Y-71294761D01*
X136540952Y-71342380D01*
X136445714Y-71342380D01*
X137350476Y-71342380D02*
X137540952Y-71342380D01*
X137636190Y-71294761D01*
X137683809Y-71247142D01*
X137779047Y-71104285D01*
X137826666Y-70913809D01*
X137826666Y-70532857D01*
X137779047Y-70437619D01*
X137731428Y-70390000D01*
X137636190Y-70342380D01*
X137445714Y-70342380D01*
X137350476Y-70390000D01*
X137302857Y-70437619D01*
X137255238Y-70532857D01*
X137255238Y-70770952D01*
X137302857Y-70866190D01*
X137350476Y-70913809D01*
X137445714Y-70961428D01*
X137636190Y-70961428D01*
X137731428Y-70913809D01*
X137779047Y-70866190D01*
X137826666Y-70770952D01*
%TO.C,J6*%
X111426666Y-70342380D02*
X111426666Y-71056666D01*
X111379047Y-71199523D01*
X111283809Y-71294761D01*
X111140952Y-71342380D01*
X111045714Y-71342380D01*
X112331428Y-70342380D02*
X112140952Y-70342380D01*
X112045714Y-70390000D01*
X111998095Y-70437619D01*
X111902857Y-70580476D01*
X111855238Y-70770952D01*
X111855238Y-71151904D01*
X111902857Y-71247142D01*
X111950476Y-71294761D01*
X112045714Y-71342380D01*
X112236190Y-71342380D01*
X112331428Y-71294761D01*
X112379047Y-71247142D01*
X112426666Y-71151904D01*
X112426666Y-70913809D01*
X112379047Y-70818571D01*
X112331428Y-70770952D01*
X112236190Y-70723333D01*
X112045714Y-70723333D01*
X111950476Y-70770952D01*
X111902857Y-70818571D01*
X111855238Y-70913809D01*
%TO.C,J7*%
X111426666Y-55332380D02*
X111426666Y-56046666D01*
X111379047Y-56189523D01*
X111283809Y-56284761D01*
X111140952Y-56332380D01*
X111045714Y-56332380D01*
X111807619Y-55332380D02*
X112474285Y-55332380D01*
X112045714Y-56332380D01*
%TO.C,A1*%
X187255714Y-90336666D02*
X187731904Y-90336666D01*
X187160476Y-90622380D02*
X187493809Y-89622380D01*
X187827142Y-90622380D01*
X188684285Y-90622380D02*
X188112857Y-90622380D01*
X188398571Y-90622380D02*
X188398571Y-89622380D01*
X188303333Y-89765238D01*
X188208095Y-89860476D01*
X188112857Y-89908095D01*
D11*
%TO.C,J4*%
X94916171Y-132283200D02*
X95351600Y-132283200D01*
X95438685Y-132312228D01*
X95496742Y-132370285D01*
X95525771Y-132457371D01*
X95525771Y-132515428D01*
X95119371Y-131731657D02*
X95525771Y-131731657D01*
X94887142Y-131876800D02*
X95322571Y-132021942D01*
X95322571Y-131644571D01*
X91940742Y-132805714D02*
X91969771Y-132718628D01*
X91969771Y-132573485D01*
X91940742Y-132515428D01*
X91911714Y-132486400D01*
X91853657Y-132457371D01*
X91795600Y-132457371D01*
X91737542Y-132486400D01*
X91708514Y-132515428D01*
X91679485Y-132573485D01*
X91650457Y-132689600D01*
X91621428Y-132747657D01*
X91592400Y-132776685D01*
X91534342Y-132805714D01*
X91476285Y-132805714D01*
X91418228Y-132776685D01*
X91389200Y-132747657D01*
X91360171Y-132689600D01*
X91360171Y-132544457D01*
X91389200Y-132457371D01*
X91650457Y-131992914D02*
X91650457Y-132196114D01*
X91969771Y-132196114D02*
X91360171Y-132196114D01*
X91360171Y-131905828D01*
X91360171Y-131557485D02*
X91360171Y-131499428D01*
X91389200Y-131441371D01*
X91418228Y-131412342D01*
X91476285Y-131383314D01*
X91592400Y-131354285D01*
X91737542Y-131354285D01*
X91853657Y-131383314D01*
X91911714Y-131412342D01*
X91940742Y-131441371D01*
X91969771Y-131499428D01*
X91969771Y-131557485D01*
X91940742Y-131615542D01*
X91911714Y-131644571D01*
X91853657Y-131673600D01*
X91737542Y-131702628D01*
X91592400Y-131702628D01*
X91476285Y-131673600D01*
X91418228Y-131644571D01*
X91389200Y-131615542D01*
X91360171Y-131557485D01*
D10*
%TO.C,J3*%
X101266666Y-122227380D02*
X101266666Y-122941666D01*
X101219047Y-123084523D01*
X101123809Y-123179761D01*
X100980952Y-123227380D01*
X100885714Y-123227380D01*
X101647619Y-122227380D02*
X102266666Y-122227380D01*
X101933333Y-122608333D01*
X102076190Y-122608333D01*
X102171428Y-122655952D01*
X102219047Y-122703571D01*
X102266666Y-122798809D01*
X102266666Y-123036904D01*
X102219047Y-123132142D01*
X102171428Y-123179761D01*
X102076190Y-123227380D01*
X101790476Y-123227380D01*
X101695238Y-123179761D01*
X101647619Y-123132142D01*
D11*
%TO.C,B1*%
X160408257Y-96476457D02*
X160495342Y-96505485D01*
X160524371Y-96534514D01*
X160553400Y-96592571D01*
X160553400Y-96679657D01*
X160524371Y-96737714D01*
X160495342Y-96766742D01*
X160437285Y-96795771D01*
X160205057Y-96795771D01*
X160205057Y-96186171D01*
X160408257Y-96186171D01*
X160466314Y-96215200D01*
X160495342Y-96244228D01*
X160524371Y-96302285D01*
X160524371Y-96360342D01*
X160495342Y-96418400D01*
X160466314Y-96447428D01*
X160408257Y-96476457D01*
X160205057Y-96476457D01*
X161133971Y-96795771D02*
X160785628Y-96795771D01*
X160959800Y-96795771D02*
X160959800Y-96186171D01*
X160901742Y-96273257D01*
X160843685Y-96331314D01*
X160785628Y-96360342D01*
X155400828Y-94890771D02*
X155110542Y-94890771D01*
X155110542Y-94281171D01*
X155720142Y-94281171D02*
X155836257Y-94281171D01*
X155894314Y-94310200D01*
X155952371Y-94368257D01*
X155981400Y-94484371D01*
X155981400Y-94687571D01*
X155952371Y-94803685D01*
X155894314Y-94861742D01*
X155836257Y-94890771D01*
X155720142Y-94890771D01*
X155662085Y-94861742D01*
X155604028Y-94803685D01*
X155575000Y-94687571D01*
X155575000Y-94484371D01*
X155604028Y-94368257D01*
X155662085Y-94310200D01*
X155720142Y-94281171D01*
X156561971Y-94310200D02*
X156503914Y-94281171D01*
X156416828Y-94281171D01*
X156329742Y-94310200D01*
X156271685Y-94368257D01*
X156242657Y-94426314D01*
X156213628Y-94542428D01*
X156213628Y-94629514D01*
X156242657Y-94745628D01*
X156271685Y-94803685D01*
X156329742Y-94861742D01*
X156416828Y-94890771D01*
X156474885Y-94890771D01*
X156561971Y-94861742D01*
X156591000Y-94832714D01*
X156591000Y-94629514D01*
X156474885Y-94629514D01*
X156852257Y-94890771D02*
X156852257Y-94281171D01*
X157490885Y-94832714D02*
X157461857Y-94861742D01*
X157374771Y-94890771D01*
X157316714Y-94890771D01*
X157229628Y-94861742D01*
X157171571Y-94803685D01*
X157142542Y-94745628D01*
X157113514Y-94629514D01*
X157113514Y-94542428D01*
X157142542Y-94426314D01*
X157171571Y-94368257D01*
X157229628Y-94310200D01*
X157316714Y-94281171D01*
X157374771Y-94281171D01*
X157461857Y-94310200D01*
X157490885Y-94339228D01*
X157607000Y-94948828D02*
X158071457Y-94948828D01*
X158506885Y-94890771D02*
X158216600Y-94890771D01*
X158216600Y-94281171D01*
X158710085Y-94571457D02*
X158913285Y-94571457D01*
X159000371Y-94890771D02*
X158710085Y-94890771D01*
X158710085Y-94281171D01*
X159000371Y-94281171D01*
X159174542Y-94281171D02*
X159377742Y-94890771D01*
X159580942Y-94281171D01*
X159784142Y-94571457D02*
X159987342Y-94571457D01*
X160074428Y-94890771D02*
X159784142Y-94890771D01*
X159784142Y-94281171D01*
X160074428Y-94281171D01*
X160625971Y-94890771D02*
X160335685Y-94890771D01*
X160335685Y-94281171D01*
X160684028Y-94948828D02*
X161148485Y-94948828D01*
X161641971Y-94832714D02*
X161612942Y-94861742D01*
X161525857Y-94890771D01*
X161467800Y-94890771D01*
X161380714Y-94861742D01*
X161322657Y-94803685D01*
X161293628Y-94745628D01*
X161264600Y-94629514D01*
X161264600Y-94542428D01*
X161293628Y-94426314D01*
X161322657Y-94368257D01*
X161380714Y-94310200D01*
X161467800Y-94281171D01*
X161525857Y-94281171D01*
X161612942Y-94310200D01*
X161641971Y-94339228D01*
X162019342Y-94281171D02*
X162135457Y-94281171D01*
X162193514Y-94310200D01*
X162251571Y-94368257D01*
X162280600Y-94484371D01*
X162280600Y-94687571D01*
X162251571Y-94803685D01*
X162193514Y-94861742D01*
X162135457Y-94890771D01*
X162019342Y-94890771D01*
X161961285Y-94861742D01*
X161903228Y-94803685D01*
X161874200Y-94687571D01*
X161874200Y-94484371D01*
X161903228Y-94368257D01*
X161961285Y-94310200D01*
X162019342Y-94281171D01*
X162541857Y-94890771D02*
X162541857Y-94281171D01*
X162890200Y-94890771D01*
X162890200Y-94281171D01*
X163093400Y-94281171D02*
X163296600Y-94890771D01*
X163499800Y-94281171D01*
X163703000Y-94571457D02*
X163906200Y-94571457D01*
X163993285Y-94890771D02*
X163703000Y-94890771D01*
X163703000Y-94281171D01*
X163993285Y-94281171D01*
X164602885Y-94890771D02*
X164399685Y-94600485D01*
X164254542Y-94890771D02*
X164254542Y-94281171D01*
X164486771Y-94281171D01*
X164544828Y-94310200D01*
X164573857Y-94339228D01*
X164602885Y-94397285D01*
X164602885Y-94484371D01*
X164573857Y-94542428D01*
X164544828Y-94571457D01*
X164486771Y-94600485D01*
X164254542Y-94600485D01*
X164777057Y-94281171D02*
X165125400Y-94281171D01*
X164951228Y-94890771D02*
X164951228Y-94281171D01*
X165328600Y-94571457D02*
X165531800Y-94571457D01*
X165618885Y-94890771D02*
X165328600Y-94890771D01*
X165328600Y-94281171D01*
X165618885Y-94281171D01*
X166228485Y-94890771D02*
X166025285Y-94600485D01*
X165880142Y-94890771D02*
X165880142Y-94281171D01*
X166112371Y-94281171D01*
X166170428Y-94310200D01*
X166199457Y-94339228D01*
X166228485Y-94397285D01*
X166228485Y-94484371D01*
X166199457Y-94542428D01*
X166170428Y-94571457D01*
X166112371Y-94600485D01*
X165880142Y-94600485D01*
D12*
X162227380Y-110222695D02*
X162227380Y-109409895D01*
X162227380Y-109796942D02*
X162691838Y-109796942D01*
X162691838Y-110222695D02*
X162691838Y-109409895D01*
X162962771Y-109409895D02*
X163233704Y-110222695D01*
X163504638Y-109409895D01*
X164123914Y-109680828D02*
X164123914Y-110222695D01*
X163930390Y-109371190D02*
X163736866Y-109951761D01*
X164240028Y-109951761D01*
X162868428Y-102602695D02*
X162868428Y-101789895D01*
X162868428Y-102176942D02*
X163332885Y-102176942D01*
X163332885Y-102602695D02*
X163332885Y-101789895D01*
X163603819Y-101789895D02*
X163874752Y-102602695D01*
X164145685Y-101789895D01*
X157749723Y-104368600D02*
X157672314Y-104329895D01*
X157556200Y-104329895D01*
X157440085Y-104368600D01*
X157362676Y-104446009D01*
X157323971Y-104523419D01*
X157285266Y-104678238D01*
X157285266Y-104794352D01*
X157323971Y-104949171D01*
X157362676Y-105026580D01*
X157440085Y-105103990D01*
X157556200Y-105142695D01*
X157633609Y-105142695D01*
X157749723Y-105103990D01*
X157788428Y-105065285D01*
X157788428Y-104794352D01*
X157633609Y-104794352D01*
X158136771Y-105142695D02*
X158136771Y-104329895D01*
X158601228Y-105142695D01*
X158601228Y-104329895D01*
X158988276Y-105142695D02*
X158988276Y-104329895D01*
X159181800Y-104329895D01*
X159297914Y-104368600D01*
X159375323Y-104446009D01*
X159414028Y-104523419D01*
X159452733Y-104678238D01*
X159452733Y-104794352D01*
X159414028Y-104949171D01*
X159375323Y-105026580D01*
X159297914Y-105103990D01*
X159181800Y-105142695D01*
X158988276Y-105142695D01*
X157631190Y-110222695D02*
X157244142Y-110222695D01*
X157244142Y-109409895D01*
X157786009Y-109409895D02*
X158056942Y-110222695D01*
X158327876Y-109409895D01*
X158947152Y-109680828D02*
X158947152Y-110222695D01*
X158753628Y-109371190D02*
X158560104Y-109951761D01*
X159063266Y-109951761D01*
X157631190Y-97522695D02*
X157244142Y-97522695D01*
X157244142Y-96709895D01*
X157786009Y-96709895D02*
X158056942Y-97522695D01*
X158327876Y-96709895D01*
X159024561Y-97522695D02*
X158560104Y-97522695D01*
X158792333Y-97522695D02*
X158792333Y-96709895D01*
X158714923Y-96826009D01*
X158637514Y-96903419D01*
X158560104Y-96942123D01*
X162448723Y-104368600D02*
X162371314Y-104329895D01*
X162255200Y-104329895D01*
X162139085Y-104368600D01*
X162061676Y-104446009D01*
X162022971Y-104523419D01*
X161984266Y-104678238D01*
X161984266Y-104794352D01*
X162022971Y-104949171D01*
X162061676Y-105026580D01*
X162139085Y-105103990D01*
X162255200Y-105142695D01*
X162332609Y-105142695D01*
X162448723Y-105103990D01*
X162487428Y-105065285D01*
X162487428Y-104794352D01*
X162332609Y-104794352D01*
X162835771Y-105142695D02*
X162835771Y-104329895D01*
X163300228Y-105142695D01*
X163300228Y-104329895D01*
X163687276Y-105142695D02*
X163687276Y-104329895D01*
X163880800Y-104329895D01*
X163996914Y-104368600D01*
X164074323Y-104446009D01*
X164113028Y-104523419D01*
X164151733Y-104678238D01*
X164151733Y-104794352D01*
X164113028Y-104949171D01*
X164074323Y-105026580D01*
X163996914Y-105103990D01*
X163880800Y-105142695D01*
X163687276Y-105142695D01*
X162227380Y-97522695D02*
X162227380Y-96709895D01*
X162227380Y-97096942D02*
X162691838Y-97096942D01*
X162691838Y-97522695D02*
X162691838Y-96709895D01*
X162962771Y-96709895D02*
X163233704Y-97522695D01*
X163504638Y-96709895D01*
X164201323Y-97522695D02*
X163736866Y-97522695D01*
X163969095Y-97522695D02*
X163969095Y-96709895D01*
X163891685Y-96826009D01*
X163814276Y-96903419D01*
X163736866Y-96942123D01*
X157637238Y-102602695D02*
X157250190Y-102602695D01*
X157250190Y-101789895D01*
X157792057Y-101789895D02*
X158062990Y-102602695D01*
X158333923Y-101789895D01*
X157631190Y-100062695D02*
X157244142Y-100062695D01*
X157244142Y-99249895D01*
X157786009Y-99249895D02*
X158056942Y-100062695D01*
X158327876Y-99249895D01*
X158560104Y-99327304D02*
X158598809Y-99288600D01*
X158676219Y-99249895D01*
X158869742Y-99249895D01*
X158947152Y-99288600D01*
X158985857Y-99327304D01*
X159024561Y-99404714D01*
X159024561Y-99482123D01*
X158985857Y-99598238D01*
X158521400Y-100062695D01*
X159024561Y-100062695D01*
X162100380Y-100062695D02*
X162100380Y-99249895D01*
X162100380Y-99636942D02*
X162564838Y-99636942D01*
X162564838Y-100062695D02*
X162564838Y-99249895D01*
X162835771Y-99249895D02*
X163106704Y-100062695D01*
X163377638Y-99249895D01*
X163609866Y-99327304D02*
X163648571Y-99288600D01*
X163725980Y-99249895D01*
X163919504Y-99249895D01*
X163996914Y-99288600D01*
X164035619Y-99327304D01*
X164074323Y-99404714D01*
X164074323Y-99482123D01*
X164035619Y-99598238D01*
X163571161Y-100062695D01*
X164074323Y-100062695D01*
X157631190Y-107682695D02*
X157244142Y-107682695D01*
X157244142Y-106869895D01*
X157786009Y-106869895D02*
X158056942Y-107682695D01*
X158327876Y-106869895D01*
X158521400Y-106869895D02*
X159024561Y-106869895D01*
X158753628Y-107179533D01*
X158869742Y-107179533D01*
X158947152Y-107218238D01*
X158985857Y-107256942D01*
X159024561Y-107334352D01*
X159024561Y-107527876D01*
X158985857Y-107605285D01*
X158947152Y-107643990D01*
X158869742Y-107682695D01*
X158637514Y-107682695D01*
X158560104Y-107643990D01*
X158521400Y-107605285D01*
X162227380Y-107682695D02*
X162227380Y-106869895D01*
X162227380Y-107256942D02*
X162691838Y-107256942D01*
X162691838Y-107682695D02*
X162691838Y-106869895D01*
X162962771Y-106869895D02*
X163233704Y-107682695D01*
X163504638Y-106869895D01*
X163698161Y-106869895D02*
X164201323Y-106869895D01*
X163930390Y-107179533D01*
X164046504Y-107179533D01*
X164123914Y-107218238D01*
X164162619Y-107256942D01*
X164201323Y-107334352D01*
X164201323Y-107527876D01*
X164162619Y-107605285D01*
X164123914Y-107643990D01*
X164046504Y-107682695D01*
X163814276Y-107682695D01*
X163736866Y-107643990D01*
X163698161Y-107605285D01*
D10*
%TO.C,U1*%
X115408626Y-80226124D02*
X115408626Y-81035960D01*
X115456263Y-81131235D01*
X115503901Y-81178873D01*
X115599175Y-81226510D01*
X115789725Y-81226510D01*
X115885000Y-81178873D01*
X115932637Y-81131235D01*
X115980275Y-81035960D01*
X115980275Y-80226124D01*
X116980661Y-81226510D02*
X116409012Y-81226510D01*
X116694836Y-81226510D02*
X116694836Y-80226124D01*
X116599561Y-80369036D01*
X116504287Y-80464311D01*
X116409012Y-80511949D01*
D11*
%TO.C,J5*%
X85645171Y-132283200D02*
X86080600Y-132283200D01*
X86167685Y-132312228D01*
X86225742Y-132370285D01*
X86254771Y-132457371D01*
X86254771Y-132515428D01*
X85645171Y-131702628D02*
X85645171Y-131992914D01*
X85935457Y-132021942D01*
X85906428Y-131992914D01*
X85877400Y-131934857D01*
X85877400Y-131789714D01*
X85906428Y-131731657D01*
X85935457Y-131702628D01*
X85993514Y-131673600D01*
X86138657Y-131673600D01*
X86196714Y-131702628D01*
X86225742Y-131731657D01*
X86254771Y-131789714D01*
X86254771Y-131934857D01*
X86225742Y-131992914D01*
X86196714Y-132021942D01*
X89781742Y-132805714D02*
X89810771Y-132718628D01*
X89810771Y-132573485D01*
X89781742Y-132515428D01*
X89752714Y-132486400D01*
X89694657Y-132457371D01*
X89636600Y-132457371D01*
X89578542Y-132486400D01*
X89549514Y-132515428D01*
X89520485Y-132573485D01*
X89491457Y-132689600D01*
X89462428Y-132747657D01*
X89433400Y-132776685D01*
X89375342Y-132805714D01*
X89317285Y-132805714D01*
X89259228Y-132776685D01*
X89230200Y-132747657D01*
X89201171Y-132689600D01*
X89201171Y-132544457D01*
X89230200Y-132457371D01*
X89491457Y-131992914D02*
X89491457Y-132196114D01*
X89810771Y-132196114D02*
X89201171Y-132196114D01*
X89201171Y-131905828D01*
X89810771Y-131354285D02*
X89810771Y-131702628D01*
X89810771Y-131528457D02*
X89201171Y-131528457D01*
X89288257Y-131586514D01*
X89346314Y-131644571D01*
X89375342Y-131702628D01*
%TO.C,J11*%
X146826514Y-101266171D02*
X146826514Y-101701600D01*
X146797485Y-101788685D01*
X146739428Y-101846742D01*
X146652342Y-101875771D01*
X146594285Y-101875771D01*
X147436114Y-101875771D02*
X147087771Y-101875771D01*
X147261942Y-101875771D02*
X147261942Y-101266171D01*
X147203885Y-101353257D01*
X147145828Y-101411314D01*
X147087771Y-101440342D01*
X148016685Y-101875771D02*
X147668342Y-101875771D01*
X147842514Y-101875771D02*
X147842514Y-101266171D01*
X147784457Y-101353257D01*
X147726400Y-101411314D01*
X147668342Y-101440342D01*
X146420114Y-97256600D02*
X146710400Y-97256600D01*
X146362057Y-97430771D02*
X146565257Y-96821171D01*
X146768457Y-97430771D01*
X146826514Y-97488828D02*
X147290971Y-97488828D01*
X147349028Y-96821171D02*
X147697371Y-96821171D01*
X147523200Y-97430771D02*
X147523200Y-96821171D01*
X147842514Y-96821171D02*
X148248914Y-97430771D01*
X148248914Y-96821171D02*
X147842514Y-97430771D01*
D10*
%TO.C,J8*%
X136826666Y-55102380D02*
X136826666Y-55816666D01*
X136779047Y-55959523D01*
X136683809Y-56054761D01*
X136540952Y-56102380D01*
X136445714Y-56102380D01*
X137445714Y-55530952D02*
X137350476Y-55483333D01*
X137302857Y-55435714D01*
X137255238Y-55340476D01*
X137255238Y-55292857D01*
X137302857Y-55197619D01*
X137350476Y-55150000D01*
X137445714Y-55102380D01*
X137636190Y-55102380D01*
X137731428Y-55150000D01*
X137779047Y-55197619D01*
X137826666Y-55292857D01*
X137826666Y-55340476D01*
X137779047Y-55435714D01*
X137731428Y-55483333D01*
X137636190Y-55530952D01*
X137445714Y-55530952D01*
X137350476Y-55578571D01*
X137302857Y-55626190D01*
X137255238Y-55721428D01*
X137255238Y-55911904D01*
X137302857Y-56007142D01*
X137350476Y-56054761D01*
X137445714Y-56102380D01*
X137636190Y-56102380D01*
X137731428Y-56054761D01*
X137779047Y-56007142D01*
X137826666Y-55911904D01*
X137826666Y-55721428D01*
X137779047Y-55626190D01*
X137731428Y-55578571D01*
X137636190Y-55530952D01*
D11*
%TO.C,J12*%
X146826514Y-112061171D02*
X146826514Y-112496600D01*
X146797485Y-112583685D01*
X146739428Y-112641742D01*
X146652342Y-112670771D01*
X146594285Y-112670771D01*
X147436114Y-112670771D02*
X147087771Y-112670771D01*
X147261942Y-112670771D02*
X147261942Y-112061171D01*
X147203885Y-112148257D01*
X147145828Y-112206314D01*
X147087771Y-112235342D01*
X147668342Y-112119228D02*
X147697371Y-112090200D01*
X147755428Y-112061171D01*
X147900571Y-112061171D01*
X147958628Y-112090200D01*
X147987657Y-112119228D01*
X148016685Y-112177285D01*
X148016685Y-112235342D01*
X147987657Y-112322428D01*
X147639314Y-112670771D01*
X148016685Y-112670771D01*
X146115314Y-117576600D02*
X146405600Y-117576600D01*
X146057257Y-117750771D02*
X146260457Y-117141171D01*
X146463657Y-117750771D01*
X146521714Y-117808828D02*
X146986171Y-117808828D01*
X147479657Y-117750771D02*
X147276457Y-117460485D01*
X147131314Y-117750771D02*
X147131314Y-117141171D01*
X147363542Y-117141171D01*
X147421600Y-117170200D01*
X147450628Y-117199228D01*
X147479657Y-117257285D01*
X147479657Y-117344371D01*
X147450628Y-117402428D01*
X147421600Y-117431457D01*
X147363542Y-117460485D01*
X147131314Y-117460485D01*
X147711885Y-117721742D02*
X147798971Y-117750771D01*
X147944114Y-117750771D01*
X148002171Y-117721742D01*
X148031200Y-117692714D01*
X148060228Y-117634657D01*
X148060228Y-117576600D01*
X148031200Y-117518542D01*
X148002171Y-117489514D01*
X147944114Y-117460485D01*
X147828000Y-117431457D01*
X147769942Y-117402428D01*
X147740914Y-117373400D01*
X147711885Y-117315342D01*
X147711885Y-117257285D01*
X147740914Y-117199228D01*
X147769942Y-117170200D01*
X147828000Y-117141171D01*
X147973142Y-117141171D01*
X148060228Y-117170200D01*
X148234400Y-117141171D02*
X148582742Y-117141171D01*
X148408571Y-117750771D02*
X148408571Y-117141171D01*
D10*
%TO.C,J2*%
X86661666Y-122862380D02*
X86661666Y-123576666D01*
X86614047Y-123719523D01*
X86518809Y-123814761D01*
X86375952Y-123862380D01*
X86280714Y-123862380D01*
X87090238Y-122957619D02*
X87137857Y-122910000D01*
X87233095Y-122862380D01*
X87471190Y-122862380D01*
X87566428Y-122910000D01*
X87614047Y-122957619D01*
X87661666Y-123052857D01*
X87661666Y-123148095D01*
X87614047Y-123290952D01*
X87042619Y-123862380D01*
X87661666Y-123862380D01*
D13*
%TO.C,J1*%
X84511656Y-55410000D02*
X84944669Y-55160000D01*
X84944669Y-55660000D02*
X84511656Y-55410000D01*
X71710331Y-45465000D02*
X84050331Y-45465000D01*
X84944669Y-55160000D02*
X84944669Y-55660000D01*
X84050331Y-45465000D02*
X84050331Y-76435000D01*
X84050331Y-76435000D02*
X71710331Y-76435000D01*
%TO.C,J9*%
X135830000Y-74870000D02*
X135830000Y-74990000D01*
X137160000Y-72330000D02*
X138490000Y-72330000D01*
X138490000Y-72330000D02*
X138490000Y-73660000D01*
X135830000Y-74990000D02*
X138490000Y-74990000D01*
X138490000Y-74870000D02*
X138490000Y-74990000D01*
%TO.C,J6*%
X111760000Y-72330000D02*
X113090000Y-72330000D01*
X113090000Y-72330000D02*
X113090000Y-73660000D01*
X113090000Y-74870000D02*
X113090000Y-74990000D01*
X110430000Y-74990000D02*
X113090000Y-74990000D01*
X110430000Y-74870000D02*
X110430000Y-74990000D01*
%TO.C,J7*%
X111760000Y-57090000D02*
X113090000Y-57090000D01*
X113090000Y-59630000D02*
X113090000Y-59750000D01*
X110430000Y-59750000D02*
X113090000Y-59750000D01*
X113090000Y-57090000D02*
X113090000Y-58420000D01*
X110430000Y-59630000D02*
X110430000Y-59750000D01*
%TO.C,A1*%
X196990000Y-91310000D02*
X178950000Y-91310000D01*
X181620000Y-96520000D02*
X181620000Y-93980000D01*
X196990000Y-134750000D02*
X196990000Y-91310000D01*
X181620000Y-96520000D02*
X181620000Y-132080000D01*
X181620000Y-132080000D02*
X178950000Y-132080000D01*
X194320000Y-93980000D02*
X194320000Y-132080000D01*
X178950000Y-134750000D02*
X196990000Y-134750000D01*
X181620000Y-96520000D02*
X178950000Y-96520000D01*
X178950000Y-91310000D02*
X178950000Y-93980000D01*
X194320000Y-132080000D02*
X196990000Y-132080000D01*
X194320000Y-93980000D02*
X196990000Y-93980000D01*
X178950000Y-96520000D02*
X178950000Y-134750000D01*
X181620000Y-93980000D02*
X178950000Y-93980000D01*
%TO.C,J3*%
X100270000Y-118735000D02*
X100270000Y-98355000D01*
X102930000Y-98355000D02*
X100270000Y-98355000D01*
X101600000Y-121335000D02*
X100270000Y-121335000D01*
X102930000Y-118735000D02*
X102930000Y-98355000D01*
X102930000Y-118735000D02*
X100270000Y-118735000D01*
X100270000Y-121335000D02*
X100270000Y-120005000D01*
D11*
%TO.C,B1*%
X167005000Y-111125000D02*
X154305000Y-111125000D01*
X167005000Y-95885000D02*
X167005000Y-111125000D01*
X154305000Y-95885000D02*
X167005000Y-95885000D01*
X154305000Y-111125000D02*
X154305000Y-95885000D01*
%TO.C,U1*%
X140950000Y-82070000D02*
X140950000Y-136470000D01*
X140950000Y-136470000D02*
X113050000Y-136470000D01*
X113050000Y-82070000D02*
X140950000Y-82070000D01*
X113050000Y-136470000D02*
X113050000Y-82070000D01*
D13*
%TO.C,J8*%
X135830000Y-59630000D02*
X135830000Y-59750000D01*
X135830000Y-59750000D02*
X138490000Y-59750000D01*
X138490000Y-59630000D02*
X138490000Y-59750000D01*
X138490000Y-57090000D02*
X138490000Y-58420000D01*
X137160000Y-57090000D02*
X138490000Y-57090000D01*
%TO.C,J2*%
X81280000Y-118795000D02*
X79950000Y-118795000D01*
X82610000Y-116195000D02*
X82610000Y-103435000D01*
X82610000Y-103435000D02*
X79950000Y-103435000D01*
X79950000Y-116195000D02*
X79950000Y-103435000D01*
X79950000Y-118795000D02*
X79950000Y-117465000D01*
X82610000Y-116195000D02*
X79950000Y-116195000D01*
%TD*%
M02*
