%TF.GenerationSoftware,KiCad,Pcbnew,(6.0.4)*%
%TF.CreationDate,2022-04-10T11:22:50+03:00*%
%TF.ProjectId,volvo_bt_board,766f6c76-6f5f-4627-945f-626f6172642e,rev?*%
%TF.SameCoordinates,Original*%
%TF.FileFunction,Legend,Top*%
%TF.FilePolarity,Positive*%
%FSLAX46Y46*%
G04 Gerber Fmt 4.6, Leading zero omitted, Abs format (unit mm)*
G04 Created by KiCad (PCBNEW (6.0.4)) date 2022-04-10 11:22:50*
%MOMM*%
%LPD*%
G01*
G04 APERTURE LIST*
%ADD10C,0.150000*%
%ADD11C,0.127000*%
%ADD12C,0.152400*%
%ADD13C,0.120000*%
G04 APERTURE END LIST*
D10*
X136939047Y-62359761D02*
X137605714Y-64359761D01*
X138272380Y-62359761D01*
X139224761Y-64359761D02*
X139034285Y-64264523D01*
X138939047Y-64169285D01*
X138843809Y-63978809D01*
X138843809Y-63407380D01*
X138939047Y-63216904D01*
X139034285Y-63121666D01*
X139224761Y-63026428D01*
X139510476Y-63026428D01*
X139700952Y-63121666D01*
X139796190Y-63216904D01*
X139891428Y-63407380D01*
X139891428Y-63978809D01*
X139796190Y-64169285D01*
X139700952Y-64264523D01*
X139510476Y-64359761D01*
X139224761Y-64359761D01*
X141034285Y-64359761D02*
X140843809Y-64264523D01*
X140748571Y-64074047D01*
X140748571Y-62359761D01*
X141605714Y-63026428D02*
X142081904Y-64359761D01*
X142558095Y-63026428D01*
X143605714Y-64359761D02*
X143415238Y-64264523D01*
X143320000Y-64169285D01*
X143224761Y-63978809D01*
X143224761Y-63407380D01*
X143320000Y-63216904D01*
X143415238Y-63121666D01*
X143605714Y-63026428D01*
X143891428Y-63026428D01*
X144081904Y-63121666D01*
X144177142Y-63216904D01*
X144272380Y-63407380D01*
X144272380Y-63978809D01*
X144177142Y-64169285D01*
X144081904Y-64264523D01*
X143891428Y-64359761D01*
X143605714Y-64359761D01*
X146653333Y-64359761D02*
X146653333Y-62359761D01*
X147320000Y-63788333D01*
X147986666Y-62359761D01*
X147986666Y-64359761D01*
X148939047Y-63312142D02*
X149605714Y-63312142D01*
X149891428Y-64359761D02*
X148939047Y-64359761D01*
X148939047Y-62359761D01*
X149891428Y-62359761D01*
X151700952Y-64359761D02*
X150748571Y-64359761D01*
X150748571Y-62359761D01*
X153034285Y-63312142D02*
X153320000Y-63407380D01*
X153415238Y-63502619D01*
X153510476Y-63693095D01*
X153510476Y-63978809D01*
X153415238Y-64169285D01*
X153320000Y-64264523D01*
X153129523Y-64359761D01*
X152367619Y-64359761D01*
X152367619Y-62359761D01*
X153034285Y-62359761D01*
X153224761Y-62455000D01*
X153320000Y-62550238D01*
X153415238Y-62740714D01*
X153415238Y-62931190D01*
X153320000Y-63121666D01*
X153224761Y-63216904D01*
X153034285Y-63312142D01*
X152367619Y-63312142D01*
X154367619Y-62359761D02*
X154367619Y-63978809D01*
X154462857Y-64169285D01*
X154558095Y-64264523D01*
X154748571Y-64359761D01*
X155129523Y-64359761D01*
X155320000Y-64264523D01*
X155415238Y-64169285D01*
X155510476Y-63978809D01*
X155510476Y-62359761D01*
X156367619Y-64264523D02*
X156653333Y-64359761D01*
X157129523Y-64359761D01*
X157320000Y-64264523D01*
X157415238Y-64169285D01*
X157510476Y-63978809D01*
X157510476Y-63788333D01*
X157415238Y-63597857D01*
X157320000Y-63502619D01*
X157129523Y-63407380D01*
X156748571Y-63312142D01*
X156558095Y-63216904D01*
X156462857Y-63121666D01*
X156367619Y-62931190D01*
X156367619Y-62740714D01*
X156462857Y-62550238D01*
X156558095Y-62455000D01*
X156748571Y-62359761D01*
X157224761Y-62359761D01*
X157510476Y-62455000D01*
X133891428Y-66532142D02*
X134177142Y-66627380D01*
X134272380Y-66722619D01*
X134367619Y-66913095D01*
X134367619Y-67198809D01*
X134272380Y-67389285D01*
X134177142Y-67484523D01*
X133986666Y-67579761D01*
X133224761Y-67579761D01*
X133224761Y-65579761D01*
X133891428Y-65579761D01*
X134081904Y-65675000D01*
X134177142Y-65770238D01*
X134272380Y-65960714D01*
X134272380Y-66151190D01*
X134177142Y-66341666D01*
X134081904Y-66436904D01*
X133891428Y-66532142D01*
X133224761Y-66532142D01*
X135510476Y-67579761D02*
X135320000Y-67484523D01*
X135224761Y-67294047D01*
X135224761Y-65579761D01*
X137129523Y-66246428D02*
X137129523Y-67579761D01*
X136272380Y-66246428D02*
X136272380Y-67294047D01*
X136367619Y-67484523D01*
X136558095Y-67579761D01*
X136843809Y-67579761D01*
X137034285Y-67484523D01*
X137129523Y-67389285D01*
X138843809Y-67484523D02*
X138653333Y-67579761D01*
X138272380Y-67579761D01*
X138081904Y-67484523D01*
X137986666Y-67294047D01*
X137986666Y-66532142D01*
X138081904Y-66341666D01*
X138272380Y-66246428D01*
X138653333Y-66246428D01*
X138843809Y-66341666D01*
X138939047Y-66532142D01*
X138939047Y-66722619D01*
X137986666Y-66913095D01*
X139510476Y-66246428D02*
X140272380Y-66246428D01*
X139796190Y-65579761D02*
X139796190Y-67294047D01*
X139891428Y-67484523D01*
X140081904Y-67579761D01*
X140272380Y-67579761D01*
X141224761Y-67579761D02*
X141034285Y-67484523D01*
X140939047Y-67389285D01*
X140843809Y-67198809D01*
X140843809Y-66627380D01*
X140939047Y-66436904D01*
X141034285Y-66341666D01*
X141224761Y-66246428D01*
X141510476Y-66246428D01*
X141700952Y-66341666D01*
X141796190Y-66436904D01*
X141891428Y-66627380D01*
X141891428Y-67198809D01*
X141796190Y-67389285D01*
X141700952Y-67484523D01*
X141510476Y-67579761D01*
X141224761Y-67579761D01*
X143034285Y-67579761D02*
X142843809Y-67484523D01*
X142748571Y-67389285D01*
X142653333Y-67198809D01*
X142653333Y-66627380D01*
X142748571Y-66436904D01*
X142843809Y-66341666D01*
X143034285Y-66246428D01*
X143320000Y-66246428D01*
X143510476Y-66341666D01*
X143605714Y-66436904D01*
X143700952Y-66627380D01*
X143700952Y-67198809D01*
X143605714Y-67389285D01*
X143510476Y-67484523D01*
X143320000Y-67579761D01*
X143034285Y-67579761D01*
X144272380Y-66246428D02*
X145034285Y-66246428D01*
X144558095Y-65579761D02*
X144558095Y-67294047D01*
X144653333Y-67484523D01*
X144843809Y-67579761D01*
X145034285Y-67579761D01*
X145700952Y-67579761D02*
X145700952Y-65579761D01*
X146558095Y-67579761D02*
X146558095Y-66532142D01*
X146462857Y-66341666D01*
X146272380Y-66246428D01*
X145986666Y-66246428D01*
X145796190Y-66341666D01*
X145700952Y-66436904D01*
X149034285Y-66532142D02*
X149700952Y-66532142D01*
X149986666Y-67579761D02*
X149034285Y-67579761D01*
X149034285Y-65579761D01*
X149986666Y-65579761D01*
X150843809Y-67579761D02*
X150843809Y-66246428D01*
X150843809Y-66436904D02*
X150939047Y-66341666D01*
X151129523Y-66246428D01*
X151415238Y-66246428D01*
X151605714Y-66341666D01*
X151700952Y-66532142D01*
X151700952Y-67579761D01*
X151700952Y-66532142D02*
X151796190Y-66341666D01*
X151986666Y-66246428D01*
X152272380Y-66246428D01*
X152462857Y-66341666D01*
X152558095Y-66532142D01*
X152558095Y-67579761D01*
X154367619Y-66246428D02*
X154367619Y-67579761D01*
X153510476Y-66246428D02*
X153510476Y-67294047D01*
X153605714Y-67484523D01*
X153796190Y-67579761D01*
X154081904Y-67579761D01*
X154272380Y-67484523D01*
X154367619Y-67389285D01*
X155605714Y-67579761D02*
X155415238Y-67484523D01*
X155320000Y-67294047D01*
X155320000Y-65579761D01*
X157224761Y-67579761D02*
X157224761Y-66532142D01*
X157129523Y-66341666D01*
X156939047Y-66246428D01*
X156558095Y-66246428D01*
X156367619Y-66341666D01*
X157224761Y-67484523D02*
X157034285Y-67579761D01*
X156558095Y-67579761D01*
X156367619Y-67484523D01*
X156272380Y-67294047D01*
X156272380Y-67103571D01*
X156367619Y-66913095D01*
X156558095Y-66817857D01*
X157034285Y-66817857D01*
X157224761Y-66722619D01*
X157891428Y-66246428D02*
X158653333Y-66246428D01*
X158177142Y-65579761D02*
X158177142Y-67294047D01*
X158272380Y-67484523D01*
X158462857Y-67579761D01*
X158653333Y-67579761D01*
X159605714Y-67579761D02*
X159415238Y-67484523D01*
X159320000Y-67389285D01*
X159224761Y-67198809D01*
X159224761Y-66627380D01*
X159320000Y-66436904D01*
X159415238Y-66341666D01*
X159605714Y-66246428D01*
X159891428Y-66246428D01*
X160081904Y-66341666D01*
X160177142Y-66436904D01*
X160272380Y-66627380D01*
X160272380Y-67198809D01*
X160177142Y-67389285D01*
X160081904Y-67484523D01*
X159891428Y-67579761D01*
X159605714Y-67579761D01*
X161129523Y-67579761D02*
X161129523Y-66246428D01*
X161129523Y-66627380D02*
X161224761Y-66436904D01*
X161320000Y-66341666D01*
X161510476Y-66246428D01*
X161700952Y-66246428D01*
X144462857Y-69466428D02*
X144939047Y-70799761D01*
X145415238Y-69466428D01*
X146558095Y-68799761D02*
X146748571Y-68799761D01*
X146939047Y-68895000D01*
X147034285Y-68990238D01*
X147129523Y-69180714D01*
X147224761Y-69561666D01*
X147224761Y-70037857D01*
X147129523Y-70418809D01*
X147034285Y-70609285D01*
X146939047Y-70704523D01*
X146748571Y-70799761D01*
X146558095Y-70799761D01*
X146367619Y-70704523D01*
X146272380Y-70609285D01*
X146177142Y-70418809D01*
X146081904Y-70037857D01*
X146081904Y-69561666D01*
X146177142Y-69180714D01*
X146272380Y-68990238D01*
X146367619Y-68895000D01*
X146558095Y-68799761D01*
X148081904Y-70609285D02*
X148177142Y-70704523D01*
X148081904Y-70799761D01*
X147986666Y-70704523D01*
X148081904Y-70609285D01*
X148081904Y-70799761D01*
X150081904Y-70799761D02*
X148939047Y-70799761D01*
X149510476Y-70799761D02*
X149510476Y-68799761D01*
X149320000Y-69085476D01*
X149129523Y-69275952D01*
X148939047Y-69371190D01*
%TO.C,H3*%
X144018095Y-129032380D02*
X144018095Y-128032380D01*
X144018095Y-128508571D02*
X144589523Y-128508571D01*
X144589523Y-129032380D02*
X144589523Y-128032380D01*
X144970476Y-128032380D02*
X145589523Y-128032380D01*
X145256190Y-128413333D01*
X145399047Y-128413333D01*
X145494285Y-128460952D01*
X145541904Y-128508571D01*
X145589523Y-128603809D01*
X145589523Y-128841904D01*
X145541904Y-128937142D01*
X145494285Y-128984761D01*
X145399047Y-129032380D01*
X145113333Y-129032380D01*
X145018095Y-128984761D01*
X144970476Y-128937142D01*
%TO.C,J9*%
X129841666Y-69707380D02*
X129841666Y-70421666D01*
X129794047Y-70564523D01*
X129698809Y-70659761D01*
X129555952Y-70707380D01*
X129460714Y-70707380D01*
X130365476Y-70707380D02*
X130555952Y-70707380D01*
X130651190Y-70659761D01*
X130698809Y-70612142D01*
X130794047Y-70469285D01*
X130841666Y-70278809D01*
X130841666Y-69897857D01*
X130794047Y-69802619D01*
X130746428Y-69755000D01*
X130651190Y-69707380D01*
X130460714Y-69707380D01*
X130365476Y-69755000D01*
X130317857Y-69802619D01*
X130270238Y-69897857D01*
X130270238Y-70135952D01*
X130317857Y-70231190D01*
X130365476Y-70278809D01*
X130460714Y-70326428D01*
X130651190Y-70326428D01*
X130746428Y-70278809D01*
X130794047Y-70231190D01*
X130841666Y-70135952D01*
%TO.C,J6*%
X104441666Y-69707380D02*
X104441666Y-70421666D01*
X104394047Y-70564523D01*
X104298809Y-70659761D01*
X104155952Y-70707380D01*
X104060714Y-70707380D01*
X105346428Y-69707380D02*
X105155952Y-69707380D01*
X105060714Y-69755000D01*
X105013095Y-69802619D01*
X104917857Y-69945476D01*
X104870238Y-70135952D01*
X104870238Y-70516904D01*
X104917857Y-70612142D01*
X104965476Y-70659761D01*
X105060714Y-70707380D01*
X105251190Y-70707380D01*
X105346428Y-70659761D01*
X105394047Y-70612142D01*
X105441666Y-70516904D01*
X105441666Y-70278809D01*
X105394047Y-70183571D01*
X105346428Y-70135952D01*
X105251190Y-70088333D01*
X105060714Y-70088333D01*
X104965476Y-70135952D01*
X104917857Y-70183571D01*
X104870238Y-70278809D01*
%TO.C,H1*%
X92583095Y-54737380D02*
X92583095Y-53737380D01*
X92583095Y-54213571D02*
X93154523Y-54213571D01*
X93154523Y-54737380D02*
X93154523Y-53737380D01*
X94154523Y-54737380D02*
X93583095Y-54737380D01*
X93868809Y-54737380D02*
X93868809Y-53737380D01*
X93773571Y-53880238D01*
X93678333Y-53975476D01*
X93583095Y-54023095D01*
%TO.C,J7*%
X104441666Y-54697380D02*
X104441666Y-55411666D01*
X104394047Y-55554523D01*
X104298809Y-55649761D01*
X104155952Y-55697380D01*
X104060714Y-55697380D01*
X104822619Y-54697380D02*
X105489285Y-54697380D01*
X105060714Y-55697380D01*
D11*
%TO.C,J10*%
X133491514Y-94916171D02*
X133491514Y-95351600D01*
X133462485Y-95438685D01*
X133404428Y-95496742D01*
X133317342Y-95525771D01*
X133259285Y-95525771D01*
X134101114Y-95525771D02*
X133752771Y-95525771D01*
X133926942Y-95525771D02*
X133926942Y-94916171D01*
X133868885Y-95003257D01*
X133810828Y-95061314D01*
X133752771Y-95090342D01*
X134478485Y-94916171D02*
X134536542Y-94916171D01*
X134594600Y-94945200D01*
X134623628Y-94974228D01*
X134652657Y-95032285D01*
X134681685Y-95148400D01*
X134681685Y-95293542D01*
X134652657Y-95409657D01*
X134623628Y-95467714D01*
X134594600Y-95496742D01*
X134536542Y-95525771D01*
X134478485Y-95525771D01*
X134420428Y-95496742D01*
X134391400Y-95467714D01*
X134362371Y-95409657D01*
X134333342Y-95293542D01*
X134333342Y-95148400D01*
X134362371Y-95032285D01*
X134391400Y-94974228D01*
X134420428Y-94945200D01*
X134478485Y-94916171D01*
X138092542Y-95351600D02*
X138382828Y-95351600D01*
X138034485Y-95525771D02*
X138237685Y-94916171D01*
X138440885Y-95525771D01*
X138498942Y-95583828D02*
X138963400Y-95583828D01*
X139456885Y-95525771D02*
X139253685Y-95235485D01*
X139108542Y-95525771D02*
X139108542Y-94916171D01*
X139340771Y-94916171D01*
X139398828Y-94945200D01*
X139427857Y-94974228D01*
X139456885Y-95032285D01*
X139456885Y-95119371D01*
X139427857Y-95177428D01*
X139398828Y-95206457D01*
X139340771Y-95235485D01*
X139108542Y-95235485D01*
X139660085Y-94916171D02*
X140066485Y-95525771D01*
X140066485Y-94916171D02*
X139660085Y-95525771D01*
D10*
%TO.C,H2*%
X160528095Y-54737380D02*
X160528095Y-53737380D01*
X160528095Y-54213571D02*
X161099523Y-54213571D01*
X161099523Y-54737380D02*
X161099523Y-53737380D01*
X161528095Y-53832619D02*
X161575714Y-53785000D01*
X161670952Y-53737380D01*
X161909047Y-53737380D01*
X162004285Y-53785000D01*
X162051904Y-53832619D01*
X162099523Y-53927857D01*
X162099523Y-54023095D01*
X162051904Y-54165952D01*
X161480476Y-54737380D01*
X162099523Y-54737380D01*
%TO.C,A1*%
X167570714Y-89701666D02*
X168046904Y-89701666D01*
X167475476Y-89987380D02*
X167808809Y-88987380D01*
X168142142Y-89987380D01*
X168999285Y-89987380D02*
X168427857Y-89987380D01*
X168713571Y-89987380D02*
X168713571Y-88987380D01*
X168618333Y-89130238D01*
X168523095Y-89225476D01*
X168427857Y-89273095D01*
D11*
%TO.C,J4*%
X89836171Y-132283200D02*
X90271600Y-132283200D01*
X90358685Y-132312228D01*
X90416742Y-132370285D01*
X90445771Y-132457371D01*
X90445771Y-132515428D01*
X90039371Y-131731657D02*
X90445771Y-131731657D01*
X89807142Y-131876800D02*
X90242571Y-132021942D01*
X90242571Y-131644571D01*
X86860742Y-132805714D02*
X86889771Y-132718628D01*
X86889771Y-132573485D01*
X86860742Y-132515428D01*
X86831714Y-132486400D01*
X86773657Y-132457371D01*
X86715600Y-132457371D01*
X86657542Y-132486400D01*
X86628514Y-132515428D01*
X86599485Y-132573485D01*
X86570457Y-132689600D01*
X86541428Y-132747657D01*
X86512400Y-132776685D01*
X86454342Y-132805714D01*
X86396285Y-132805714D01*
X86338228Y-132776685D01*
X86309200Y-132747657D01*
X86280171Y-132689600D01*
X86280171Y-132544457D01*
X86309200Y-132457371D01*
X86570457Y-131992914D02*
X86570457Y-132196114D01*
X86889771Y-132196114D02*
X86280171Y-132196114D01*
X86280171Y-131905828D01*
X86280171Y-131557485D02*
X86280171Y-131499428D01*
X86309200Y-131441371D01*
X86338228Y-131412342D01*
X86396285Y-131383314D01*
X86512400Y-131354285D01*
X86657542Y-131354285D01*
X86773657Y-131383314D01*
X86831714Y-131412342D01*
X86860742Y-131441371D01*
X86889771Y-131499428D01*
X86889771Y-131557485D01*
X86860742Y-131615542D01*
X86831714Y-131644571D01*
X86773657Y-131673600D01*
X86657542Y-131702628D01*
X86512400Y-131702628D01*
X86396285Y-131673600D01*
X86338228Y-131644571D01*
X86309200Y-131615542D01*
X86280171Y-131557485D01*
D10*
%TO.C,J3*%
X96186666Y-122227380D02*
X96186666Y-122941666D01*
X96139047Y-123084523D01*
X96043809Y-123179761D01*
X95900952Y-123227380D01*
X95805714Y-123227380D01*
X96567619Y-122227380D02*
X97186666Y-122227380D01*
X96853333Y-122608333D01*
X96996190Y-122608333D01*
X97091428Y-122655952D01*
X97139047Y-122703571D01*
X97186666Y-122798809D01*
X97186666Y-123036904D01*
X97139047Y-123132142D01*
X97091428Y-123179761D01*
X96996190Y-123227380D01*
X96710476Y-123227380D01*
X96615238Y-123179761D01*
X96567619Y-123132142D01*
%TO.C,H4*%
X76073095Y-129032380D02*
X76073095Y-128032380D01*
X76073095Y-128508571D02*
X76644523Y-128508571D01*
X76644523Y-129032380D02*
X76644523Y-128032380D01*
X77549285Y-128365714D02*
X77549285Y-129032380D01*
X77311190Y-127984761D02*
X77073095Y-128699047D01*
X77692142Y-128699047D01*
D11*
%TO.C,B1*%
X148343257Y-96476457D02*
X148430342Y-96505485D01*
X148459371Y-96534514D01*
X148488400Y-96592571D01*
X148488400Y-96679657D01*
X148459371Y-96737714D01*
X148430342Y-96766742D01*
X148372285Y-96795771D01*
X148140057Y-96795771D01*
X148140057Y-96186171D01*
X148343257Y-96186171D01*
X148401314Y-96215200D01*
X148430342Y-96244228D01*
X148459371Y-96302285D01*
X148459371Y-96360342D01*
X148430342Y-96418400D01*
X148401314Y-96447428D01*
X148343257Y-96476457D01*
X148140057Y-96476457D01*
X149068971Y-96795771D02*
X148720628Y-96795771D01*
X148894800Y-96795771D02*
X148894800Y-96186171D01*
X148836742Y-96273257D01*
X148778685Y-96331314D01*
X148720628Y-96360342D01*
X143335828Y-94890771D02*
X143045542Y-94890771D01*
X143045542Y-94281171D01*
X143655142Y-94281171D02*
X143771257Y-94281171D01*
X143829314Y-94310200D01*
X143887371Y-94368257D01*
X143916400Y-94484371D01*
X143916400Y-94687571D01*
X143887371Y-94803685D01*
X143829314Y-94861742D01*
X143771257Y-94890771D01*
X143655142Y-94890771D01*
X143597085Y-94861742D01*
X143539028Y-94803685D01*
X143510000Y-94687571D01*
X143510000Y-94484371D01*
X143539028Y-94368257D01*
X143597085Y-94310200D01*
X143655142Y-94281171D01*
X144496971Y-94310200D02*
X144438914Y-94281171D01*
X144351828Y-94281171D01*
X144264742Y-94310200D01*
X144206685Y-94368257D01*
X144177657Y-94426314D01*
X144148628Y-94542428D01*
X144148628Y-94629514D01*
X144177657Y-94745628D01*
X144206685Y-94803685D01*
X144264742Y-94861742D01*
X144351828Y-94890771D01*
X144409885Y-94890771D01*
X144496971Y-94861742D01*
X144526000Y-94832714D01*
X144526000Y-94629514D01*
X144409885Y-94629514D01*
X144787257Y-94890771D02*
X144787257Y-94281171D01*
X145425885Y-94832714D02*
X145396857Y-94861742D01*
X145309771Y-94890771D01*
X145251714Y-94890771D01*
X145164628Y-94861742D01*
X145106571Y-94803685D01*
X145077542Y-94745628D01*
X145048514Y-94629514D01*
X145048514Y-94542428D01*
X145077542Y-94426314D01*
X145106571Y-94368257D01*
X145164628Y-94310200D01*
X145251714Y-94281171D01*
X145309771Y-94281171D01*
X145396857Y-94310200D01*
X145425885Y-94339228D01*
X145542000Y-94948828D02*
X146006457Y-94948828D01*
X146441885Y-94890771D02*
X146151600Y-94890771D01*
X146151600Y-94281171D01*
X146645085Y-94571457D02*
X146848285Y-94571457D01*
X146935371Y-94890771D02*
X146645085Y-94890771D01*
X146645085Y-94281171D01*
X146935371Y-94281171D01*
X147109542Y-94281171D02*
X147312742Y-94890771D01*
X147515942Y-94281171D01*
X147719142Y-94571457D02*
X147922342Y-94571457D01*
X148009428Y-94890771D02*
X147719142Y-94890771D01*
X147719142Y-94281171D01*
X148009428Y-94281171D01*
X148560971Y-94890771D02*
X148270685Y-94890771D01*
X148270685Y-94281171D01*
X148619028Y-94948828D02*
X149083485Y-94948828D01*
X149576971Y-94832714D02*
X149547942Y-94861742D01*
X149460857Y-94890771D01*
X149402800Y-94890771D01*
X149315714Y-94861742D01*
X149257657Y-94803685D01*
X149228628Y-94745628D01*
X149199600Y-94629514D01*
X149199600Y-94542428D01*
X149228628Y-94426314D01*
X149257657Y-94368257D01*
X149315714Y-94310200D01*
X149402800Y-94281171D01*
X149460857Y-94281171D01*
X149547942Y-94310200D01*
X149576971Y-94339228D01*
X149954342Y-94281171D02*
X150070457Y-94281171D01*
X150128514Y-94310200D01*
X150186571Y-94368257D01*
X150215600Y-94484371D01*
X150215600Y-94687571D01*
X150186571Y-94803685D01*
X150128514Y-94861742D01*
X150070457Y-94890771D01*
X149954342Y-94890771D01*
X149896285Y-94861742D01*
X149838228Y-94803685D01*
X149809200Y-94687571D01*
X149809200Y-94484371D01*
X149838228Y-94368257D01*
X149896285Y-94310200D01*
X149954342Y-94281171D01*
X150476857Y-94890771D02*
X150476857Y-94281171D01*
X150825200Y-94890771D01*
X150825200Y-94281171D01*
X151028400Y-94281171D02*
X151231600Y-94890771D01*
X151434800Y-94281171D01*
X151638000Y-94571457D02*
X151841200Y-94571457D01*
X151928285Y-94890771D02*
X151638000Y-94890771D01*
X151638000Y-94281171D01*
X151928285Y-94281171D01*
X152537885Y-94890771D02*
X152334685Y-94600485D01*
X152189542Y-94890771D02*
X152189542Y-94281171D01*
X152421771Y-94281171D01*
X152479828Y-94310200D01*
X152508857Y-94339228D01*
X152537885Y-94397285D01*
X152537885Y-94484371D01*
X152508857Y-94542428D01*
X152479828Y-94571457D01*
X152421771Y-94600485D01*
X152189542Y-94600485D01*
X152712057Y-94281171D02*
X153060400Y-94281171D01*
X152886228Y-94890771D02*
X152886228Y-94281171D01*
X153263600Y-94571457D02*
X153466800Y-94571457D01*
X153553885Y-94890771D02*
X153263600Y-94890771D01*
X153263600Y-94281171D01*
X153553885Y-94281171D01*
X154163485Y-94890771D02*
X153960285Y-94600485D01*
X153815142Y-94890771D02*
X153815142Y-94281171D01*
X154047371Y-94281171D01*
X154105428Y-94310200D01*
X154134457Y-94339228D01*
X154163485Y-94397285D01*
X154163485Y-94484371D01*
X154134457Y-94542428D01*
X154105428Y-94571457D01*
X154047371Y-94600485D01*
X153815142Y-94600485D01*
D12*
X150162380Y-110222695D02*
X150162380Y-109409895D01*
X150162380Y-109796942D02*
X150626838Y-109796942D01*
X150626838Y-110222695D02*
X150626838Y-109409895D01*
X150897771Y-109409895D02*
X151168704Y-110222695D01*
X151439638Y-109409895D01*
X152058914Y-109680828D02*
X152058914Y-110222695D01*
X151865390Y-109371190D02*
X151671866Y-109951761D01*
X152175028Y-109951761D01*
X150803428Y-102602695D02*
X150803428Y-101789895D01*
X150803428Y-102176942D02*
X151267885Y-102176942D01*
X151267885Y-102602695D02*
X151267885Y-101789895D01*
X151538819Y-101789895D02*
X151809752Y-102602695D01*
X152080685Y-101789895D01*
X145684723Y-104368600D02*
X145607314Y-104329895D01*
X145491200Y-104329895D01*
X145375085Y-104368600D01*
X145297676Y-104446009D01*
X145258971Y-104523419D01*
X145220266Y-104678238D01*
X145220266Y-104794352D01*
X145258971Y-104949171D01*
X145297676Y-105026580D01*
X145375085Y-105103990D01*
X145491200Y-105142695D01*
X145568609Y-105142695D01*
X145684723Y-105103990D01*
X145723428Y-105065285D01*
X145723428Y-104794352D01*
X145568609Y-104794352D01*
X146071771Y-105142695D02*
X146071771Y-104329895D01*
X146536228Y-105142695D01*
X146536228Y-104329895D01*
X146923276Y-105142695D02*
X146923276Y-104329895D01*
X147116800Y-104329895D01*
X147232914Y-104368600D01*
X147310323Y-104446009D01*
X147349028Y-104523419D01*
X147387733Y-104678238D01*
X147387733Y-104794352D01*
X147349028Y-104949171D01*
X147310323Y-105026580D01*
X147232914Y-105103990D01*
X147116800Y-105142695D01*
X146923276Y-105142695D01*
X145566190Y-110222695D02*
X145179142Y-110222695D01*
X145179142Y-109409895D01*
X145721009Y-109409895D02*
X145991942Y-110222695D01*
X146262876Y-109409895D01*
X146882152Y-109680828D02*
X146882152Y-110222695D01*
X146688628Y-109371190D02*
X146495104Y-109951761D01*
X146998266Y-109951761D01*
X145566190Y-97522695D02*
X145179142Y-97522695D01*
X145179142Y-96709895D01*
X145721009Y-96709895D02*
X145991942Y-97522695D01*
X146262876Y-96709895D01*
X146959561Y-97522695D02*
X146495104Y-97522695D01*
X146727333Y-97522695D02*
X146727333Y-96709895D01*
X146649923Y-96826009D01*
X146572514Y-96903419D01*
X146495104Y-96942123D01*
X150383723Y-104368600D02*
X150306314Y-104329895D01*
X150190200Y-104329895D01*
X150074085Y-104368600D01*
X149996676Y-104446009D01*
X149957971Y-104523419D01*
X149919266Y-104678238D01*
X149919266Y-104794352D01*
X149957971Y-104949171D01*
X149996676Y-105026580D01*
X150074085Y-105103990D01*
X150190200Y-105142695D01*
X150267609Y-105142695D01*
X150383723Y-105103990D01*
X150422428Y-105065285D01*
X150422428Y-104794352D01*
X150267609Y-104794352D01*
X150770771Y-105142695D02*
X150770771Y-104329895D01*
X151235228Y-105142695D01*
X151235228Y-104329895D01*
X151622276Y-105142695D02*
X151622276Y-104329895D01*
X151815800Y-104329895D01*
X151931914Y-104368600D01*
X152009323Y-104446009D01*
X152048028Y-104523419D01*
X152086733Y-104678238D01*
X152086733Y-104794352D01*
X152048028Y-104949171D01*
X152009323Y-105026580D01*
X151931914Y-105103990D01*
X151815800Y-105142695D01*
X151622276Y-105142695D01*
X150162380Y-97522695D02*
X150162380Y-96709895D01*
X150162380Y-97096942D02*
X150626838Y-97096942D01*
X150626838Y-97522695D02*
X150626838Y-96709895D01*
X150897771Y-96709895D02*
X151168704Y-97522695D01*
X151439638Y-96709895D01*
X152136323Y-97522695D02*
X151671866Y-97522695D01*
X151904095Y-97522695D02*
X151904095Y-96709895D01*
X151826685Y-96826009D01*
X151749276Y-96903419D01*
X151671866Y-96942123D01*
X145572238Y-102602695D02*
X145185190Y-102602695D01*
X145185190Y-101789895D01*
X145727057Y-101789895D02*
X145997990Y-102602695D01*
X146268923Y-101789895D01*
X145566190Y-100062695D02*
X145179142Y-100062695D01*
X145179142Y-99249895D01*
X145721009Y-99249895D02*
X145991942Y-100062695D01*
X146262876Y-99249895D01*
X146495104Y-99327304D02*
X146533809Y-99288600D01*
X146611219Y-99249895D01*
X146804742Y-99249895D01*
X146882152Y-99288600D01*
X146920857Y-99327304D01*
X146959561Y-99404714D01*
X146959561Y-99482123D01*
X146920857Y-99598238D01*
X146456400Y-100062695D01*
X146959561Y-100062695D01*
X150035380Y-100062695D02*
X150035380Y-99249895D01*
X150035380Y-99636942D02*
X150499838Y-99636942D01*
X150499838Y-100062695D02*
X150499838Y-99249895D01*
X150770771Y-99249895D02*
X151041704Y-100062695D01*
X151312638Y-99249895D01*
X151544866Y-99327304D02*
X151583571Y-99288600D01*
X151660980Y-99249895D01*
X151854504Y-99249895D01*
X151931914Y-99288600D01*
X151970619Y-99327304D01*
X152009323Y-99404714D01*
X152009323Y-99482123D01*
X151970619Y-99598238D01*
X151506161Y-100062695D01*
X152009323Y-100062695D01*
X145566190Y-107682695D02*
X145179142Y-107682695D01*
X145179142Y-106869895D01*
X145721009Y-106869895D02*
X145991942Y-107682695D01*
X146262876Y-106869895D01*
X146456400Y-106869895D02*
X146959561Y-106869895D01*
X146688628Y-107179533D01*
X146804742Y-107179533D01*
X146882152Y-107218238D01*
X146920857Y-107256942D01*
X146959561Y-107334352D01*
X146959561Y-107527876D01*
X146920857Y-107605285D01*
X146882152Y-107643990D01*
X146804742Y-107682695D01*
X146572514Y-107682695D01*
X146495104Y-107643990D01*
X146456400Y-107605285D01*
X150162380Y-107682695D02*
X150162380Y-106869895D01*
X150162380Y-107256942D02*
X150626838Y-107256942D01*
X150626838Y-107682695D02*
X150626838Y-106869895D01*
X150897771Y-106869895D02*
X151168704Y-107682695D01*
X151439638Y-106869895D01*
X151633161Y-106869895D02*
X152136323Y-106869895D01*
X151865390Y-107179533D01*
X151981504Y-107179533D01*
X152058914Y-107218238D01*
X152097619Y-107256942D01*
X152136323Y-107334352D01*
X152136323Y-107527876D01*
X152097619Y-107605285D01*
X152058914Y-107643990D01*
X151981504Y-107682695D01*
X151749276Y-107682695D01*
X151671866Y-107643990D01*
X151633161Y-107605285D01*
D10*
%TO.C,J1*%
X84442711Y-64928333D02*
X85156997Y-64928333D01*
X85299854Y-64975952D01*
X85395092Y-65071190D01*
X85442711Y-65214047D01*
X85442711Y-65309285D01*
X85442711Y-63928333D02*
X85442711Y-64499761D01*
X85442711Y-64214047D02*
X84442711Y-64214047D01*
X84585569Y-64309285D01*
X84680807Y-64404523D01*
X84728426Y-64499761D01*
%TO.C,U1*%
X105883626Y-80226124D02*
X105883626Y-81035960D01*
X105931263Y-81131235D01*
X105978901Y-81178873D01*
X106074175Y-81226510D01*
X106264725Y-81226510D01*
X106360000Y-81178873D01*
X106407637Y-81131235D01*
X106455275Y-81035960D01*
X106455275Y-80226124D01*
X107455661Y-81226510D02*
X106884012Y-81226510D01*
X107169836Y-81226510D02*
X107169836Y-80226124D01*
X107074561Y-80369036D01*
X106979287Y-80464311D01*
X106884012Y-80511949D01*
D11*
%TO.C,J5*%
X80565171Y-132283200D02*
X81000600Y-132283200D01*
X81087685Y-132312228D01*
X81145742Y-132370285D01*
X81174771Y-132457371D01*
X81174771Y-132515428D01*
X80565171Y-131702628D02*
X80565171Y-131992914D01*
X80855457Y-132021942D01*
X80826428Y-131992914D01*
X80797400Y-131934857D01*
X80797400Y-131789714D01*
X80826428Y-131731657D01*
X80855457Y-131702628D01*
X80913514Y-131673600D01*
X81058657Y-131673600D01*
X81116714Y-131702628D01*
X81145742Y-131731657D01*
X81174771Y-131789714D01*
X81174771Y-131934857D01*
X81145742Y-131992914D01*
X81116714Y-132021942D01*
X84701742Y-132805714D02*
X84730771Y-132718628D01*
X84730771Y-132573485D01*
X84701742Y-132515428D01*
X84672714Y-132486400D01*
X84614657Y-132457371D01*
X84556600Y-132457371D01*
X84498542Y-132486400D01*
X84469514Y-132515428D01*
X84440485Y-132573485D01*
X84411457Y-132689600D01*
X84382428Y-132747657D01*
X84353400Y-132776685D01*
X84295342Y-132805714D01*
X84237285Y-132805714D01*
X84179228Y-132776685D01*
X84150200Y-132747657D01*
X84121171Y-132689600D01*
X84121171Y-132544457D01*
X84150200Y-132457371D01*
X84411457Y-131992914D02*
X84411457Y-132196114D01*
X84730771Y-132196114D02*
X84121171Y-132196114D01*
X84121171Y-131905828D01*
X84730771Y-131354285D02*
X84730771Y-131702628D01*
X84730771Y-131528457D02*
X84121171Y-131528457D01*
X84208257Y-131586514D01*
X84266314Y-131644571D01*
X84295342Y-131702628D01*
%TO.C,J11*%
X133491514Y-101266171D02*
X133491514Y-101701600D01*
X133462485Y-101788685D01*
X133404428Y-101846742D01*
X133317342Y-101875771D01*
X133259285Y-101875771D01*
X134101114Y-101875771D02*
X133752771Y-101875771D01*
X133926942Y-101875771D02*
X133926942Y-101266171D01*
X133868885Y-101353257D01*
X133810828Y-101411314D01*
X133752771Y-101440342D01*
X134681685Y-101875771D02*
X134333342Y-101875771D01*
X134507514Y-101875771D02*
X134507514Y-101266171D01*
X134449457Y-101353257D01*
X134391400Y-101411314D01*
X134333342Y-101440342D01*
X138165114Y-101701600D02*
X138455400Y-101701600D01*
X138107057Y-101875771D02*
X138310257Y-101266171D01*
X138513457Y-101875771D01*
X138571514Y-101933828D02*
X139035971Y-101933828D01*
X139094028Y-101266171D02*
X139442371Y-101266171D01*
X139268200Y-101875771D02*
X139268200Y-101266171D01*
X139587514Y-101266171D02*
X139993914Y-101875771D01*
X139993914Y-101266171D02*
X139587514Y-101875771D01*
D10*
%TO.C,J8*%
X129841666Y-54467380D02*
X129841666Y-55181666D01*
X129794047Y-55324523D01*
X129698809Y-55419761D01*
X129555952Y-55467380D01*
X129460714Y-55467380D01*
X130460714Y-54895952D02*
X130365476Y-54848333D01*
X130317857Y-54800714D01*
X130270238Y-54705476D01*
X130270238Y-54657857D01*
X130317857Y-54562619D01*
X130365476Y-54515000D01*
X130460714Y-54467380D01*
X130651190Y-54467380D01*
X130746428Y-54515000D01*
X130794047Y-54562619D01*
X130841666Y-54657857D01*
X130841666Y-54705476D01*
X130794047Y-54800714D01*
X130746428Y-54848333D01*
X130651190Y-54895952D01*
X130460714Y-54895952D01*
X130365476Y-54943571D01*
X130317857Y-54991190D01*
X130270238Y-55086428D01*
X130270238Y-55276904D01*
X130317857Y-55372142D01*
X130365476Y-55419761D01*
X130460714Y-55467380D01*
X130651190Y-55467380D01*
X130746428Y-55419761D01*
X130794047Y-55372142D01*
X130841666Y-55276904D01*
X130841666Y-55086428D01*
X130794047Y-54991190D01*
X130746428Y-54943571D01*
X130651190Y-54895952D01*
D11*
%TO.C,J12*%
X136031514Y-112061171D02*
X136031514Y-112496600D01*
X136002485Y-112583685D01*
X135944428Y-112641742D01*
X135857342Y-112670771D01*
X135799285Y-112670771D01*
X136641114Y-112670771D02*
X136292771Y-112670771D01*
X136466942Y-112670771D02*
X136466942Y-112061171D01*
X136408885Y-112148257D01*
X136350828Y-112206314D01*
X136292771Y-112235342D01*
X136873342Y-112119228D02*
X136902371Y-112090200D01*
X136960428Y-112061171D01*
X137105571Y-112061171D01*
X137163628Y-112090200D01*
X137192657Y-112119228D01*
X137221685Y-112177285D01*
X137221685Y-112235342D01*
X137192657Y-112322428D01*
X136844314Y-112670771D01*
X137221685Y-112670771D01*
X135320314Y-117576600D02*
X135610600Y-117576600D01*
X135262257Y-117750771D02*
X135465457Y-117141171D01*
X135668657Y-117750771D01*
X135726714Y-117808828D02*
X136191171Y-117808828D01*
X136684657Y-117750771D02*
X136481457Y-117460485D01*
X136336314Y-117750771D02*
X136336314Y-117141171D01*
X136568542Y-117141171D01*
X136626600Y-117170200D01*
X136655628Y-117199228D01*
X136684657Y-117257285D01*
X136684657Y-117344371D01*
X136655628Y-117402428D01*
X136626600Y-117431457D01*
X136568542Y-117460485D01*
X136336314Y-117460485D01*
X136916885Y-117721742D02*
X137003971Y-117750771D01*
X137149114Y-117750771D01*
X137207171Y-117721742D01*
X137236200Y-117692714D01*
X137265228Y-117634657D01*
X137265228Y-117576600D01*
X137236200Y-117518542D01*
X137207171Y-117489514D01*
X137149114Y-117460485D01*
X137033000Y-117431457D01*
X136974942Y-117402428D01*
X136945914Y-117373400D01*
X136916885Y-117315342D01*
X136916885Y-117257285D01*
X136945914Y-117199228D01*
X136974942Y-117170200D01*
X137033000Y-117141171D01*
X137178142Y-117141171D01*
X137265228Y-117170200D01*
X137439400Y-117141171D02*
X137787742Y-117141171D01*
X137613571Y-117750771D02*
X137613571Y-117141171D01*
D10*
%TO.C,J2*%
X75866666Y-120102380D02*
X75866666Y-120816666D01*
X75819047Y-120959523D01*
X75723809Y-121054761D01*
X75580952Y-121102380D01*
X75485714Y-121102380D01*
X76295238Y-120197619D02*
X76342857Y-120150000D01*
X76438095Y-120102380D01*
X76676190Y-120102380D01*
X76771428Y-120150000D01*
X76819047Y-120197619D01*
X76866666Y-120292857D01*
X76866666Y-120388095D01*
X76819047Y-120530952D01*
X76247619Y-121102380D01*
X76866666Y-121102380D01*
D13*
%TO.C,J9*%
X128845000Y-74235000D02*
X128845000Y-74355000D01*
X130175000Y-71695000D02*
X131505000Y-71695000D01*
X131505000Y-71695000D02*
X131505000Y-73025000D01*
X128845000Y-74355000D02*
X131505000Y-74355000D01*
X131505000Y-74235000D02*
X131505000Y-74355000D01*
%TO.C,J6*%
X104775000Y-71695000D02*
X106105000Y-71695000D01*
X106105000Y-71695000D02*
X106105000Y-73025000D01*
X106105000Y-74235000D02*
X106105000Y-74355000D01*
X103445000Y-74355000D02*
X106105000Y-74355000D01*
X103445000Y-74235000D02*
X103445000Y-74355000D01*
%TO.C,J7*%
X104775000Y-56455000D02*
X106105000Y-56455000D01*
X106105000Y-58995000D02*
X106105000Y-59115000D01*
X103445000Y-59115000D02*
X106105000Y-59115000D01*
X106105000Y-56455000D02*
X106105000Y-57785000D01*
X103445000Y-58995000D02*
X103445000Y-59115000D01*
%TO.C,A1*%
X177305000Y-90675000D02*
X159265000Y-90675000D01*
X161935000Y-95885000D02*
X161935000Y-93345000D01*
X177305000Y-134115000D02*
X177305000Y-90675000D01*
X161935000Y-95885000D02*
X161935000Y-131445000D01*
X161935000Y-131445000D02*
X159265000Y-131445000D01*
X174635000Y-93345000D02*
X174635000Y-131445000D01*
X159265000Y-134115000D02*
X177305000Y-134115000D01*
X161935000Y-95885000D02*
X159265000Y-95885000D01*
X159265000Y-90675000D02*
X159265000Y-93345000D01*
X174635000Y-131445000D02*
X177305000Y-131445000D01*
X174635000Y-93345000D02*
X177305000Y-93345000D01*
X159265000Y-95885000D02*
X159265000Y-134115000D01*
X161935000Y-93345000D02*
X159265000Y-93345000D01*
%TO.C,J3*%
X95190000Y-118735000D02*
X95190000Y-98355000D01*
X97850000Y-98355000D02*
X95190000Y-98355000D01*
X96520000Y-121335000D02*
X95190000Y-121335000D01*
X97850000Y-118735000D02*
X97850000Y-98355000D01*
X97850000Y-118735000D02*
X95190000Y-118735000D01*
X95190000Y-121335000D02*
X95190000Y-120005000D01*
D11*
%TO.C,B1*%
X154940000Y-111125000D02*
X142240000Y-111125000D01*
X154940000Y-95885000D02*
X154940000Y-111125000D01*
X142240000Y-95885000D02*
X154940000Y-95885000D01*
X142240000Y-111125000D02*
X142240000Y-95885000D01*
D13*
%TO.C,J1*%
X84050331Y-49110000D02*
X84050331Y-80080000D01*
X71710331Y-49110000D02*
X84050331Y-49110000D01*
X84944669Y-59305000D02*
X84511656Y-59055000D01*
X84511656Y-59055000D02*
X84944669Y-58805000D01*
X84944669Y-58805000D02*
X84944669Y-59305000D01*
X84050331Y-80080000D02*
X71710331Y-80080000D01*
D11*
%TO.C,U1*%
X131425000Y-82070000D02*
X131425000Y-136470000D01*
X131425000Y-136470000D02*
X103525000Y-136470000D01*
X103525000Y-82070000D02*
X131425000Y-82070000D01*
X103525000Y-136470000D02*
X103525000Y-82070000D01*
D13*
%TO.C,J8*%
X128845000Y-58995000D02*
X128845000Y-59115000D01*
X128845000Y-59115000D02*
X131505000Y-59115000D01*
X131505000Y-58995000D02*
X131505000Y-59115000D01*
X131505000Y-56455000D02*
X131505000Y-57785000D01*
X130175000Y-56455000D02*
X131505000Y-56455000D01*
%TO.C,J2*%
X76200000Y-118795000D02*
X74870000Y-118795000D01*
X77530000Y-116195000D02*
X77530000Y-103435000D01*
X77530000Y-103435000D02*
X74870000Y-103435000D01*
X74870000Y-116195000D02*
X74870000Y-103435000D01*
X74870000Y-118795000D02*
X74870000Y-117465000D01*
X77530000Y-116195000D02*
X74870000Y-116195000D01*
%TD*%
M02*
