%FSLAX45Y45*%
G04 Gerber Fmt 4.5, Leading zero omitted, Abs format (unit mm)*
G04 Created by KiCad (PCBNEW (6.0.4)) date 2022-04-10 11:44:14*
%MOMM*%
%LPD*%
G01*
G04 APERTURE LIST*
%TA.AperFunction,Profile*%
%ADD10C,0.100000*%
%TD*%
%ADD11C,0.200000*%
%ADD12C,0.100000*%
%ADD13C,0.101600*%
%ADD14C,0.104000*%
%ADD15C,0.250000*%
%ADD16C,0.320000*%
G04 APERTURE END LIST*
D10*
X7175500Y-4508500D02*
X18097500Y-4508500D01*
X18097500Y-4508500D02*
X18097500Y-13906500D01*
X18097500Y-13906500D02*
X7175500Y-13906500D01*
X7175500Y-13906500D02*
X7175500Y-4508500D01*
D11*
D12*
X7570000Y-10426500D02*
X7670000Y-10526500D01*
X7670000Y-10426500D02*
X7570000Y-10526500D01*
X7570000Y-10680500D02*
X7670000Y-10780500D01*
X7670000Y-10680500D02*
X7570000Y-10780500D01*
X7570000Y-10934500D02*
X7670000Y-11034500D01*
X7670000Y-10934500D02*
X7570000Y-11034500D01*
X7570000Y-11188500D02*
X7670000Y-11288500D01*
X7670000Y-11188500D02*
X7570000Y-11288500D01*
X7570000Y-11442500D02*
X7670000Y-11542500D01*
X7670000Y-11442500D02*
X7570000Y-11542500D01*
X7570000Y-11696500D02*
X7670000Y-11796500D01*
X7670000Y-11696500D02*
X7570000Y-11796500D01*
X7885033Y-5994000D02*
X7985033Y-6094000D01*
X7985033Y-5994000D02*
X7885033Y-6094000D01*
X7885033Y-6271000D02*
X7985033Y-6371000D01*
X7985033Y-6271000D02*
X7885033Y-6371000D01*
X7885033Y-6548000D02*
X7985033Y-6648000D01*
X7985033Y-6548000D02*
X7885033Y-6648000D01*
X7885033Y-6825000D02*
X7985033Y-6925000D01*
X7985033Y-6825000D02*
X7885033Y-6925000D01*
X8169033Y-5855500D02*
X8269033Y-5955500D01*
X8269033Y-5855500D02*
X8169033Y-5955500D01*
X8169033Y-6132500D02*
X8269033Y-6232500D01*
X8269033Y-6132500D02*
X8169033Y-6232500D01*
X8169033Y-6409500D02*
X8269033Y-6509500D01*
X8269033Y-6409500D02*
X8169033Y-6509500D01*
X8169033Y-6686500D02*
X8269033Y-6786500D01*
X8269033Y-6686500D02*
X8169033Y-6786500D01*
X8169033Y-6963500D02*
X8269033Y-7063500D01*
X8269033Y-6963500D02*
X8169033Y-7063500D01*
X9602000Y-9918500D02*
X9702000Y-10018500D01*
X9702000Y-9918500D02*
X9602000Y-10018500D01*
X9602000Y-10172500D02*
X9702000Y-10272500D01*
X9702000Y-10172500D02*
X9602000Y-10272500D01*
X9602000Y-10426500D02*
X9702000Y-10526500D01*
X9702000Y-10426500D02*
X9602000Y-10526500D01*
X9602000Y-10680500D02*
X9702000Y-10780500D01*
X9702000Y-10680500D02*
X9602000Y-10780500D01*
X9602000Y-10934500D02*
X9702000Y-11034500D01*
X9702000Y-10934500D02*
X9602000Y-11034500D01*
X9602000Y-11188500D02*
X9702000Y-11288500D01*
X9702000Y-11188500D02*
X9602000Y-11288500D01*
X9602000Y-11442500D02*
X9702000Y-11542500D01*
X9702000Y-11442500D02*
X9602000Y-11542500D01*
X9602000Y-11696500D02*
X9702000Y-11796500D01*
X9702000Y-11696500D02*
X9602000Y-11796500D01*
X9602000Y-11950500D02*
X9702000Y-12050500D01*
X9702000Y-11950500D02*
X9602000Y-12050500D01*
X10427500Y-5728500D02*
X10527500Y-5828500D01*
X10527500Y-5728500D02*
X10427500Y-5828500D01*
X10427500Y-7252500D02*
X10527500Y-7352500D01*
X10527500Y-7252500D02*
X10427500Y-7352500D01*
X12967500Y-5728500D02*
X13067500Y-5828500D01*
X13067500Y-5728500D02*
X12967500Y-5828500D01*
X12967500Y-7252500D02*
X13067500Y-7352500D01*
X13067500Y-7252500D02*
X12967500Y-7352500D01*
X16016500Y-9411500D02*
X16116500Y-9511500D01*
X16116500Y-9411500D02*
X16016500Y-9511500D01*
X16016500Y-9665500D02*
X16116500Y-9765500D01*
X16116500Y-9665500D02*
X16016500Y-9765500D01*
X16016500Y-9919500D02*
X16116500Y-10019500D01*
X16116500Y-9919500D02*
X16016500Y-10019500D01*
X16016500Y-10173500D02*
X16116500Y-10273500D01*
X16116500Y-10173500D02*
X16016500Y-10273500D01*
X16016500Y-10427500D02*
X16116500Y-10527500D01*
X16116500Y-10427500D02*
X16016500Y-10527500D01*
X16016500Y-10681500D02*
X16116500Y-10781500D01*
X16116500Y-10681500D02*
X16016500Y-10781500D01*
X16016500Y-10935500D02*
X16116500Y-11035500D01*
X16116500Y-10935500D02*
X16016500Y-11035500D01*
X16016500Y-11189500D02*
X16116500Y-11289500D01*
X16116500Y-11189500D02*
X16016500Y-11289500D01*
X16016500Y-11443500D02*
X16116500Y-11543500D01*
X16116500Y-11443500D02*
X16016500Y-11543500D01*
X16016500Y-11697500D02*
X16116500Y-11797500D01*
X16116500Y-11697500D02*
X16016500Y-11797500D01*
X16016500Y-11951500D02*
X16116500Y-12051500D01*
X16116500Y-11951500D02*
X16016500Y-12051500D01*
X16016500Y-12205500D02*
X16116500Y-12305500D01*
X16116500Y-12205500D02*
X16016500Y-12305500D01*
X16016500Y-12459500D02*
X16116500Y-12559500D01*
X16116500Y-12459500D02*
X16016500Y-12559500D01*
X16016500Y-12713500D02*
X16116500Y-12813500D01*
X16116500Y-12713500D02*
X16016500Y-12813500D01*
X16016500Y-12967500D02*
X16116500Y-13067500D01*
X16116500Y-12967500D02*
X16016500Y-13067500D01*
X17540500Y-9411500D02*
X17640500Y-9511500D01*
X17640500Y-9411500D02*
X17540500Y-9511500D01*
X17540500Y-9665500D02*
X17640500Y-9765500D01*
X17640500Y-9665500D02*
X17540500Y-9765500D01*
X17540500Y-9919500D02*
X17640500Y-10019500D01*
X17640500Y-9919500D02*
X17540500Y-10019500D01*
X17540500Y-10173500D02*
X17640500Y-10273500D01*
X17640500Y-10173500D02*
X17540500Y-10273500D01*
X17540500Y-10427500D02*
X17640500Y-10527500D01*
X17640500Y-10427500D02*
X17540500Y-10527500D01*
X17540500Y-10681500D02*
X17640500Y-10781500D01*
X17640500Y-10681500D02*
X17540500Y-10781500D01*
X17540500Y-10935500D02*
X17640500Y-11035500D01*
X17640500Y-10935500D02*
X17540500Y-11035500D01*
X17540500Y-11189500D02*
X17640500Y-11289500D01*
X17640500Y-11189500D02*
X17540500Y-11289500D01*
X17540500Y-11443500D02*
X17640500Y-11543500D01*
X17640500Y-11443500D02*
X17540500Y-11543500D01*
X17540500Y-11697500D02*
X17640500Y-11797500D01*
X17640500Y-11697500D02*
X17540500Y-11797500D01*
X17540500Y-11951500D02*
X17640500Y-12051500D01*
X17640500Y-11951500D02*
X17540500Y-12051500D01*
X17540500Y-12205500D02*
X17640500Y-12305500D01*
X17640500Y-12205500D02*
X17540500Y-12305500D01*
X17540500Y-12459500D02*
X17640500Y-12559500D01*
X17640500Y-12459500D02*
X17540500Y-12559500D01*
X17540500Y-12713500D02*
X17640500Y-12813500D01*
X17640500Y-12713500D02*
X17540500Y-12813500D01*
X17540500Y-12967500D02*
X17640500Y-13067500D01*
X17640500Y-12967500D02*
X17540500Y-13067500D01*
D13*
X8305800Y-13081000D02*
G75*
G03*
X8305800Y-13081000I-50800J0D01*
G01*
X8305800Y-13335000D02*
G75*
G03*
X8305800Y-13335000I-50800J0D01*
G01*
X8877300Y-13081000D02*
G75*
G03*
X8877300Y-13081000I-50800J0D01*
G01*
X8877300Y-13335000D02*
G75*
G03*
X8877300Y-13335000I-50800J0D01*
G01*
X13576300Y-9715500D02*
G75*
G03*
X13576300Y-9715500I-50800J0D01*
G01*
X13576300Y-9969500D02*
G75*
G03*
X13576300Y-9969500I-50800J0D01*
G01*
X13576300Y-11493500D02*
G75*
G03*
X13576300Y-11493500I-50800J0D01*
G01*
X13830300Y-9715500D02*
G75*
G03*
X13830300Y-9715500I-50800J0D01*
G01*
X13830300Y-9969500D02*
G75*
G03*
X13830300Y-9969500I-50800J0D01*
G01*
X13830300Y-11493500D02*
G75*
G03*
X13830300Y-11493500I-50800J0D01*
G01*
X14401800Y-9715500D02*
G75*
G03*
X14401800Y-9715500I-50800J0D01*
G01*
X14401800Y-9969500D02*
G75*
G03*
X14401800Y-9969500I-50800J0D01*
G01*
X14401800Y-10223500D02*
G75*
G03*
X14401800Y-10223500I-50800J0D01*
G01*
X14401800Y-10477500D02*
G75*
G03*
X14401800Y-10477500I-50800J0D01*
G01*
X14401800Y-10731500D02*
G75*
G03*
X14401800Y-10731500I-50800J0D01*
G01*
X14401800Y-10985500D02*
G75*
G03*
X14401800Y-10985500I-50800J0D01*
G01*
X15417800Y-9715500D02*
G75*
G03*
X15417800Y-9715500I-50800J0D01*
G01*
X15417800Y-9969500D02*
G75*
G03*
X15417800Y-9969500I-50800J0D01*
G01*
X15417800Y-10223500D02*
G75*
G03*
X15417800Y-10223500I-50800J0D01*
G01*
X15417800Y-10477500D02*
G75*
G03*
X15417800Y-10477500I-50800J0D01*
G01*
X15417800Y-10731500D02*
G75*
G03*
X15417800Y-10731500I-50800J0D01*
G01*
X15417800Y-10985500D02*
G75*
G03*
X15417800Y-10985500I-50800J0D01*
G01*
D14*
X10477500Y-8894000D02*
X10477500Y-8998000D01*
X10425500Y-8946000D02*
X10529500Y-8946000D01*
X10477500Y-9148000D02*
X10477500Y-9252000D01*
X10425500Y-9200000D02*
X10529500Y-9200000D01*
X10477500Y-9402000D02*
X10477500Y-9506000D01*
X10425500Y-9454000D02*
X10529500Y-9454000D01*
X10477500Y-9656000D02*
X10477500Y-9760000D01*
X10425500Y-9708000D02*
X10529500Y-9708000D01*
X10477500Y-9910000D02*
X10477500Y-10014000D01*
X10425500Y-9962000D02*
X10529500Y-9962000D01*
X10477500Y-10164000D02*
X10477500Y-10268000D01*
X10425500Y-10216000D02*
X10529500Y-10216000D01*
X10477500Y-10418000D02*
X10477500Y-10522000D01*
X10425500Y-10470000D02*
X10529500Y-10470000D01*
X10477500Y-10672000D02*
X10477500Y-10776000D01*
X10425500Y-10724000D02*
X10529500Y-10724000D01*
X10477500Y-10926000D02*
X10477500Y-11030000D01*
X10425500Y-10978000D02*
X10529500Y-10978000D01*
X10477500Y-11180000D02*
X10477500Y-11284000D01*
X10425500Y-11232000D02*
X10529500Y-11232000D01*
X10477500Y-11434000D02*
X10477500Y-11538000D01*
X10425500Y-11486000D02*
X10529500Y-11486000D01*
X10477500Y-11688000D02*
X10477500Y-11792000D01*
X10425500Y-11740000D02*
X10529500Y-11740000D01*
X10477500Y-11942000D02*
X10477500Y-12046000D01*
X10425500Y-11994000D02*
X10529500Y-11994000D01*
X10477500Y-12196000D02*
X10477500Y-12300000D01*
X10425500Y-12248000D02*
X10529500Y-12248000D01*
X10477500Y-12450000D02*
X10477500Y-12554000D01*
X10425500Y-12502000D02*
X10529500Y-12502000D01*
X10477500Y-12704000D02*
X10477500Y-12808000D01*
X10425500Y-12756000D02*
X10529500Y-12756000D01*
X10477500Y-12958000D02*
X10477500Y-13062000D01*
X10425500Y-13010000D02*
X10529500Y-13010000D01*
X10477500Y-13212000D02*
X10477500Y-13316000D01*
X10425500Y-13264000D02*
X10529500Y-13264000D01*
X10477500Y-13466000D02*
X10477500Y-13570000D01*
X10425500Y-13518000D02*
X10529500Y-13518000D01*
X13017500Y-8894000D02*
X13017500Y-8998000D01*
X12965500Y-8946000D02*
X13069500Y-8946000D01*
X13017500Y-9148000D02*
X13017500Y-9252000D01*
X12965500Y-9200000D02*
X13069500Y-9200000D01*
X13017500Y-9402000D02*
X13017500Y-9506000D01*
X12965500Y-9454000D02*
X13069500Y-9454000D01*
X13017500Y-9656000D02*
X13017500Y-9760000D01*
X12965500Y-9708000D02*
X13069500Y-9708000D01*
X13017500Y-9910000D02*
X13017500Y-10014000D01*
X12965500Y-9962000D02*
X13069500Y-9962000D01*
X13017500Y-10164000D02*
X13017500Y-10268000D01*
X12965500Y-10216000D02*
X13069500Y-10216000D01*
X13017500Y-10418000D02*
X13017500Y-10522000D01*
X12965500Y-10470000D02*
X13069500Y-10470000D01*
X13017500Y-10672000D02*
X13017500Y-10776000D01*
X12965500Y-10724000D02*
X13069500Y-10724000D01*
X13017500Y-10926000D02*
X13017500Y-11030000D01*
X12965500Y-10978000D02*
X13069500Y-10978000D01*
X13017500Y-11180000D02*
X13017500Y-11284000D01*
X12965500Y-11232000D02*
X13069500Y-11232000D01*
X13017500Y-11434000D02*
X13017500Y-11538000D01*
X12965500Y-11486000D02*
X13069500Y-11486000D01*
X13017500Y-11688000D02*
X13017500Y-11792000D01*
X12965500Y-11740000D02*
X13069500Y-11740000D01*
X13017500Y-11942000D02*
X13017500Y-12046000D01*
X12965500Y-11994000D02*
X13069500Y-11994000D01*
X13017500Y-12196000D02*
X13017500Y-12300000D01*
X12965500Y-12248000D02*
X13069500Y-12248000D01*
X13017500Y-12450000D02*
X13017500Y-12554000D01*
X12965500Y-12502000D02*
X13069500Y-12502000D01*
X13017500Y-12704000D02*
X13017500Y-12808000D01*
X12965500Y-12756000D02*
X13069500Y-12756000D01*
X13017500Y-12958000D02*
X13017500Y-13062000D01*
X12965500Y-13010000D02*
X13069500Y-13010000D01*
X13017500Y-13212000D02*
X13017500Y-13316000D01*
X12965500Y-13264000D02*
X13069500Y-13264000D01*
X13017500Y-13466000D02*
X13017500Y-13570000D01*
X12965500Y-13518000D02*
X13069500Y-13518000D01*
D15*
X7771889Y-13296389D02*
X7771889Y-13119611D01*
X7595111Y-13119611D01*
X7595111Y-13296389D01*
X7771889Y-13296389D01*
X9422889Y-5866889D02*
X9422889Y-5690111D01*
X9246111Y-5690111D01*
X9246111Y-5866889D01*
X9422889Y-5866889D01*
X14566389Y-13296389D02*
X14566389Y-13119611D01*
X14389611Y-13119611D01*
X14389611Y-13296389D01*
X14566389Y-13296389D01*
X16217389Y-5866889D02*
X16217389Y-5690111D01*
X16040611Y-5690111D01*
X16040611Y-5866889D01*
X16217389Y-5866889D01*
D16*
X8077033Y-5369500D02*
X8237033Y-5209500D01*
X8077033Y-5049500D01*
X7917033Y-5209500D01*
X8077033Y-5369500D01*
X8077033Y-7869500D02*
X8237033Y-7709500D01*
X8077033Y-7549500D01*
X7917033Y-7709500D01*
X8077033Y-7869500D01*
D11*
X7428119Y-14221976D02*
X7428119Y-14021976D01*
X7475738Y-14021976D01*
X7504309Y-14031500D01*
X7523357Y-14050548D01*
X7532881Y-14069595D01*
X7542405Y-14107690D01*
X7542405Y-14136262D01*
X7532881Y-14174357D01*
X7523357Y-14193405D01*
X7504309Y-14212452D01*
X7475738Y-14221976D01*
X7428119Y-14221976D01*
X7628119Y-14221976D02*
X7628119Y-14088643D01*
X7628119Y-14126738D02*
X7637643Y-14107690D01*
X7647167Y-14098167D01*
X7666214Y-14088643D01*
X7685262Y-14088643D01*
X7751928Y-14221976D02*
X7751928Y-14088643D01*
X7751928Y-14021976D02*
X7742405Y-14031500D01*
X7751928Y-14041024D01*
X7761452Y-14031500D01*
X7751928Y-14021976D01*
X7751928Y-14041024D01*
X7875738Y-14221976D02*
X7856690Y-14212452D01*
X7847167Y-14193405D01*
X7847167Y-14021976D01*
X7980500Y-14221976D02*
X7961452Y-14212452D01*
X7951928Y-14193405D01*
X7951928Y-14021976D01*
X8209071Y-14221976D02*
X8209071Y-14021976D01*
X8275738Y-14164833D01*
X8342405Y-14021976D01*
X8342405Y-14221976D01*
X8523357Y-14221976D02*
X8523357Y-14117214D01*
X8513833Y-14098167D01*
X8494786Y-14088643D01*
X8456690Y-14088643D01*
X8437643Y-14098167D01*
X8523357Y-14212452D02*
X8504310Y-14221976D01*
X8456690Y-14221976D01*
X8437643Y-14212452D01*
X8428119Y-14193405D01*
X8428119Y-14174357D01*
X8437643Y-14155309D01*
X8456690Y-14145786D01*
X8504310Y-14145786D01*
X8523357Y-14136262D01*
X8618595Y-14088643D02*
X8618595Y-14288643D01*
X8618595Y-14098167D02*
X8637643Y-14088643D01*
X8675738Y-14088643D01*
X8694786Y-14098167D01*
X8704310Y-14107690D01*
X8713833Y-14126738D01*
X8713833Y-14183881D01*
X8704310Y-14202928D01*
X8694786Y-14212452D01*
X8675738Y-14221976D01*
X8637643Y-14221976D01*
X8618595Y-14212452D01*
X8799548Y-14202928D02*
X8809071Y-14212452D01*
X8799548Y-14221976D01*
X8790024Y-14212452D01*
X8799548Y-14202928D01*
X8799548Y-14221976D01*
X8799548Y-14098167D02*
X8809071Y-14107690D01*
X8799548Y-14117214D01*
X8790024Y-14107690D01*
X8799548Y-14098167D01*
X8799548Y-14117214D01*
D12*
X7070500Y-14501500D02*
X7170500Y-14601500D01*
X7170500Y-14501500D02*
X7070500Y-14601500D01*
D11*
X7532881Y-14641976D02*
X7418595Y-14641976D01*
X7475738Y-14641976D02*
X7475738Y-14441976D01*
X7456690Y-14470548D01*
X7437643Y-14489595D01*
X7418595Y-14499119D01*
X7618595Y-14622928D02*
X7628119Y-14632452D01*
X7618595Y-14641976D01*
X7609071Y-14632452D01*
X7618595Y-14622928D01*
X7618595Y-14641976D01*
X7751928Y-14441976D02*
X7770976Y-14441976D01*
X7790024Y-14451500D01*
X7799548Y-14461024D01*
X7809071Y-14480071D01*
X7818595Y-14518167D01*
X7818595Y-14565786D01*
X7809071Y-14603881D01*
X7799548Y-14622928D01*
X7790024Y-14632452D01*
X7770976Y-14641976D01*
X7751928Y-14641976D01*
X7732881Y-14632452D01*
X7723357Y-14622928D01*
X7713833Y-14603881D01*
X7704309Y-14565786D01*
X7704309Y-14518167D01*
X7713833Y-14480071D01*
X7723357Y-14461024D01*
X7732881Y-14451500D01*
X7751928Y-14441976D01*
X7942405Y-14441976D02*
X7961452Y-14441976D01*
X7980500Y-14451500D01*
X7990024Y-14461024D01*
X7999548Y-14480071D01*
X8009071Y-14518167D01*
X8009071Y-14565786D01*
X7999548Y-14603881D01*
X7990024Y-14622928D01*
X7980500Y-14632452D01*
X7961452Y-14641976D01*
X7942405Y-14641976D01*
X7923357Y-14632452D01*
X7913833Y-14622928D01*
X7904309Y-14603881D01*
X7894786Y-14565786D01*
X7894786Y-14518167D01*
X7904309Y-14480071D01*
X7913833Y-14461024D01*
X7923357Y-14451500D01*
X7942405Y-14441976D01*
X8132881Y-14441976D02*
X8151928Y-14441976D01*
X8170976Y-14451500D01*
X8180500Y-14461024D01*
X8190024Y-14480071D01*
X8199548Y-14518167D01*
X8199548Y-14565786D01*
X8190024Y-14603881D01*
X8180500Y-14622928D01*
X8170976Y-14632452D01*
X8151928Y-14641976D01*
X8132881Y-14641976D01*
X8113833Y-14632452D01*
X8104309Y-14622928D01*
X8094786Y-14603881D01*
X8085262Y-14565786D01*
X8085262Y-14518167D01*
X8094786Y-14480071D01*
X8104309Y-14461024D01*
X8113833Y-14451500D01*
X8132881Y-14441976D01*
X8285262Y-14641976D02*
X8285262Y-14508643D01*
X8285262Y-14527690D02*
X8294786Y-14518167D01*
X8313833Y-14508643D01*
X8342405Y-14508643D01*
X8361452Y-14518167D01*
X8370976Y-14537214D01*
X8370976Y-14641976D01*
X8370976Y-14537214D02*
X8380500Y-14518167D01*
X8399548Y-14508643D01*
X8428119Y-14508643D01*
X8447167Y-14518167D01*
X8456690Y-14537214D01*
X8456690Y-14641976D01*
X8551929Y-14641976D02*
X8551929Y-14508643D01*
X8551929Y-14527690D02*
X8561452Y-14518167D01*
X8580500Y-14508643D01*
X8609071Y-14508643D01*
X8628119Y-14518167D01*
X8637643Y-14537214D01*
X8637643Y-14641976D01*
X8637643Y-14537214D02*
X8647167Y-14518167D01*
X8666214Y-14508643D01*
X8694786Y-14508643D01*
X8713833Y-14518167D01*
X8723357Y-14537214D01*
X8723357Y-14641976D01*
X9113833Y-14432452D02*
X8942405Y-14689595D01*
X9370976Y-14441976D02*
X9390024Y-14441976D01*
X9409071Y-14451500D01*
X9418595Y-14461024D01*
X9428119Y-14480071D01*
X9437643Y-14518167D01*
X9437643Y-14565786D01*
X9428119Y-14603881D01*
X9418595Y-14622928D01*
X9409071Y-14632452D01*
X9390024Y-14641976D01*
X9370976Y-14641976D01*
X9351929Y-14632452D01*
X9342405Y-14622928D01*
X9332881Y-14603881D01*
X9323357Y-14565786D01*
X9323357Y-14518167D01*
X9332881Y-14480071D01*
X9342405Y-14461024D01*
X9351929Y-14451500D01*
X9370976Y-14441976D01*
X9523357Y-14622928D02*
X9532881Y-14632452D01*
X9523357Y-14641976D01*
X9513833Y-14632452D01*
X9523357Y-14622928D01*
X9523357Y-14641976D01*
X9656690Y-14441976D02*
X9675738Y-14441976D01*
X9694786Y-14451500D01*
X9704310Y-14461024D01*
X9713833Y-14480071D01*
X9723357Y-14518167D01*
X9723357Y-14565786D01*
X9713833Y-14603881D01*
X9704310Y-14622928D01*
X9694786Y-14632452D01*
X9675738Y-14641976D01*
X9656690Y-14641976D01*
X9637643Y-14632452D01*
X9628119Y-14622928D01*
X9618595Y-14603881D01*
X9609071Y-14565786D01*
X9609071Y-14518167D01*
X9618595Y-14480071D01*
X9628119Y-14461024D01*
X9637643Y-14451500D01*
X9656690Y-14441976D01*
X9790024Y-14441976D02*
X9913833Y-14441976D01*
X9847167Y-14518167D01*
X9875738Y-14518167D01*
X9894786Y-14527690D01*
X9904310Y-14537214D01*
X9913833Y-14556262D01*
X9913833Y-14603881D01*
X9904310Y-14622928D01*
X9894786Y-14632452D01*
X9875738Y-14641976D01*
X9818595Y-14641976D01*
X9799548Y-14632452D01*
X9790024Y-14622928D01*
X10009071Y-14641976D02*
X10047167Y-14641976D01*
X10066214Y-14632452D01*
X10075738Y-14622928D01*
X10094786Y-14594357D01*
X10104310Y-14556262D01*
X10104310Y-14480071D01*
X10094786Y-14461024D01*
X10085262Y-14451500D01*
X10066214Y-14441976D01*
X10028119Y-14441976D01*
X10009071Y-14451500D01*
X9999548Y-14461024D01*
X9990024Y-14480071D01*
X9990024Y-14527690D01*
X9999548Y-14546738D01*
X10009071Y-14556262D01*
X10028119Y-14565786D01*
X10066214Y-14565786D01*
X10085262Y-14556262D01*
X10094786Y-14546738D01*
X10104310Y-14527690D01*
X10275738Y-14508643D02*
X10275738Y-14641976D01*
X10228119Y-14432452D02*
X10180500Y-14575309D01*
X10304310Y-14575309D01*
X10370976Y-14441976D02*
X10370976Y-14480071D01*
X10447167Y-14441976D02*
X10447167Y-14480071D01*
X10742405Y-14718167D02*
X10732881Y-14708643D01*
X10713833Y-14680071D01*
X10704310Y-14661024D01*
X10694786Y-14632452D01*
X10685262Y-14584833D01*
X10685262Y-14546738D01*
X10694786Y-14499119D01*
X10704310Y-14470548D01*
X10713833Y-14451500D01*
X10732881Y-14422928D01*
X10742405Y-14413405D01*
X10913833Y-14441976D02*
X10818595Y-14441976D01*
X10809071Y-14537214D01*
X10818595Y-14527690D01*
X10837643Y-14518167D01*
X10885262Y-14518167D01*
X10904310Y-14527690D01*
X10913833Y-14537214D01*
X10923357Y-14556262D01*
X10923357Y-14603881D01*
X10913833Y-14622928D01*
X10904310Y-14632452D01*
X10885262Y-14641976D01*
X10837643Y-14641976D01*
X10818595Y-14632452D01*
X10809071Y-14622928D01*
X11037643Y-14527690D02*
X11018595Y-14518167D01*
X11009071Y-14508643D01*
X10999548Y-14489595D01*
X10999548Y-14480071D01*
X11009071Y-14461024D01*
X11018595Y-14451500D01*
X11037643Y-14441976D01*
X11075738Y-14441976D01*
X11094786Y-14451500D01*
X11104310Y-14461024D01*
X11113833Y-14480071D01*
X11113833Y-14489595D01*
X11104310Y-14508643D01*
X11094786Y-14518167D01*
X11075738Y-14527690D01*
X11037643Y-14527690D01*
X11018595Y-14537214D01*
X11009071Y-14546738D01*
X10999548Y-14565786D01*
X10999548Y-14603881D01*
X11009071Y-14622928D01*
X11018595Y-14632452D01*
X11037643Y-14641976D01*
X11075738Y-14641976D01*
X11094786Y-14632452D01*
X11104310Y-14622928D01*
X11113833Y-14603881D01*
X11113833Y-14565786D01*
X11104310Y-14546738D01*
X11094786Y-14537214D01*
X11075738Y-14527690D01*
X11351928Y-14641976D02*
X11351928Y-14441976D01*
X11437643Y-14641976D02*
X11437643Y-14537214D01*
X11428119Y-14518167D01*
X11409071Y-14508643D01*
X11380500Y-14508643D01*
X11361452Y-14518167D01*
X11351928Y-14527690D01*
X11561452Y-14641976D02*
X11542405Y-14632452D01*
X11532881Y-14622928D01*
X11523357Y-14603881D01*
X11523357Y-14546738D01*
X11532881Y-14527690D01*
X11542405Y-14518167D01*
X11561452Y-14508643D01*
X11590024Y-14508643D01*
X11609071Y-14518167D01*
X11618595Y-14527690D01*
X11628119Y-14546738D01*
X11628119Y-14603881D01*
X11618595Y-14622928D01*
X11609071Y-14632452D01*
X11590024Y-14641976D01*
X11561452Y-14641976D01*
X11742405Y-14641976D02*
X11723357Y-14632452D01*
X11713833Y-14613405D01*
X11713833Y-14441976D01*
X11894786Y-14632452D02*
X11875738Y-14641976D01*
X11837643Y-14641976D01*
X11818595Y-14632452D01*
X11809071Y-14613405D01*
X11809071Y-14537214D01*
X11818595Y-14518167D01*
X11837643Y-14508643D01*
X11875738Y-14508643D01*
X11894786Y-14518167D01*
X11904309Y-14537214D01*
X11904309Y-14556262D01*
X11809071Y-14575309D01*
X11980500Y-14632452D02*
X11999548Y-14641976D01*
X12037643Y-14641976D01*
X12056690Y-14632452D01*
X12066214Y-14613405D01*
X12066214Y-14603881D01*
X12056690Y-14584833D01*
X12037643Y-14575309D01*
X12009071Y-14575309D01*
X11990024Y-14565786D01*
X11980500Y-14546738D01*
X11980500Y-14537214D01*
X11990024Y-14518167D01*
X12009071Y-14508643D01*
X12037643Y-14508643D01*
X12056690Y-14518167D01*
X12132881Y-14718167D02*
X12142405Y-14708643D01*
X12161452Y-14680071D01*
X12170976Y-14661024D01*
X12180500Y-14632452D01*
X12190024Y-14584833D01*
X12190024Y-14546738D01*
X12180500Y-14499119D01*
X12170976Y-14470548D01*
X12161452Y-14451500D01*
X12142405Y-14422928D01*
X12132881Y-14413405D01*
D13*
X7170500Y-14815500D02*
G75*
G03*
X7170500Y-14815500I-50800J0D01*
G01*
D11*
X7532881Y-14905976D02*
X7418595Y-14905976D01*
X7475738Y-14905976D02*
X7475738Y-14705976D01*
X7456690Y-14734548D01*
X7437643Y-14753595D01*
X7418595Y-14763119D01*
X7618595Y-14886928D02*
X7628119Y-14896452D01*
X7618595Y-14905976D01*
X7609071Y-14896452D01*
X7618595Y-14886928D01*
X7618595Y-14905976D01*
X7751928Y-14705976D02*
X7770976Y-14705976D01*
X7790024Y-14715500D01*
X7799548Y-14725024D01*
X7809071Y-14744071D01*
X7818595Y-14782167D01*
X7818595Y-14829786D01*
X7809071Y-14867881D01*
X7799548Y-14886928D01*
X7790024Y-14896452D01*
X7770976Y-14905976D01*
X7751928Y-14905976D01*
X7732881Y-14896452D01*
X7723357Y-14886928D01*
X7713833Y-14867881D01*
X7704309Y-14829786D01*
X7704309Y-14782167D01*
X7713833Y-14744071D01*
X7723357Y-14725024D01*
X7732881Y-14715500D01*
X7751928Y-14705976D01*
X8009071Y-14905976D02*
X7894786Y-14905976D01*
X7951928Y-14905976D02*
X7951928Y-14705976D01*
X7932881Y-14734548D01*
X7913833Y-14753595D01*
X7894786Y-14763119D01*
X8180500Y-14705976D02*
X8142405Y-14705976D01*
X8123357Y-14715500D01*
X8113833Y-14725024D01*
X8094786Y-14753595D01*
X8085262Y-14791690D01*
X8085262Y-14867881D01*
X8094786Y-14886928D01*
X8104309Y-14896452D01*
X8123357Y-14905976D01*
X8161452Y-14905976D01*
X8180500Y-14896452D01*
X8190024Y-14886928D01*
X8199548Y-14867881D01*
X8199548Y-14820262D01*
X8190024Y-14801214D01*
X8180500Y-14791690D01*
X8161452Y-14782167D01*
X8123357Y-14782167D01*
X8104309Y-14791690D01*
X8094786Y-14801214D01*
X8085262Y-14820262D01*
X8285262Y-14905976D02*
X8285262Y-14772643D01*
X8285262Y-14791690D02*
X8294786Y-14782167D01*
X8313833Y-14772643D01*
X8342405Y-14772643D01*
X8361452Y-14782167D01*
X8370976Y-14801214D01*
X8370976Y-14905976D01*
X8370976Y-14801214D02*
X8380500Y-14782167D01*
X8399548Y-14772643D01*
X8428119Y-14772643D01*
X8447167Y-14782167D01*
X8456690Y-14801214D01*
X8456690Y-14905976D01*
X8551929Y-14905976D02*
X8551929Y-14772643D01*
X8551929Y-14791690D02*
X8561452Y-14782167D01*
X8580500Y-14772643D01*
X8609071Y-14772643D01*
X8628119Y-14782167D01*
X8637643Y-14801214D01*
X8637643Y-14905976D01*
X8637643Y-14801214D02*
X8647167Y-14782167D01*
X8666214Y-14772643D01*
X8694786Y-14772643D01*
X8713833Y-14782167D01*
X8723357Y-14801214D01*
X8723357Y-14905976D01*
X9113833Y-14696452D02*
X8942405Y-14953595D01*
X9370976Y-14705976D02*
X9390024Y-14705976D01*
X9409071Y-14715500D01*
X9418595Y-14725024D01*
X9428119Y-14744071D01*
X9437643Y-14782167D01*
X9437643Y-14829786D01*
X9428119Y-14867881D01*
X9418595Y-14886928D01*
X9409071Y-14896452D01*
X9390024Y-14905976D01*
X9370976Y-14905976D01*
X9351929Y-14896452D01*
X9342405Y-14886928D01*
X9332881Y-14867881D01*
X9323357Y-14829786D01*
X9323357Y-14782167D01*
X9332881Y-14744071D01*
X9342405Y-14725024D01*
X9351929Y-14715500D01*
X9370976Y-14705976D01*
X9523357Y-14886928D02*
X9532881Y-14896452D01*
X9523357Y-14905976D01*
X9513833Y-14896452D01*
X9523357Y-14886928D01*
X9523357Y-14905976D01*
X9656690Y-14705976D02*
X9675738Y-14705976D01*
X9694786Y-14715500D01*
X9704310Y-14725024D01*
X9713833Y-14744071D01*
X9723357Y-14782167D01*
X9723357Y-14829786D01*
X9713833Y-14867881D01*
X9704310Y-14886928D01*
X9694786Y-14896452D01*
X9675738Y-14905976D01*
X9656690Y-14905976D01*
X9637643Y-14896452D01*
X9628119Y-14886928D01*
X9618595Y-14867881D01*
X9609071Y-14829786D01*
X9609071Y-14782167D01*
X9618595Y-14744071D01*
X9628119Y-14725024D01*
X9637643Y-14715500D01*
X9656690Y-14705976D01*
X9894786Y-14772643D02*
X9894786Y-14905976D01*
X9847167Y-14696452D02*
X9799548Y-14839309D01*
X9923357Y-14839309D01*
X10037643Y-14705976D02*
X10056690Y-14705976D01*
X10075738Y-14715500D01*
X10085262Y-14725024D01*
X10094786Y-14744071D01*
X10104310Y-14782167D01*
X10104310Y-14829786D01*
X10094786Y-14867881D01*
X10085262Y-14886928D01*
X10075738Y-14896452D01*
X10056690Y-14905976D01*
X10037643Y-14905976D01*
X10018595Y-14896452D01*
X10009071Y-14886928D01*
X9999548Y-14867881D01*
X9990024Y-14829786D01*
X9990024Y-14782167D01*
X9999548Y-14744071D01*
X10009071Y-14725024D01*
X10018595Y-14715500D01*
X10037643Y-14705976D01*
X10228119Y-14705976D02*
X10247167Y-14705976D01*
X10266214Y-14715500D01*
X10275738Y-14725024D01*
X10285262Y-14744071D01*
X10294786Y-14782167D01*
X10294786Y-14829786D01*
X10285262Y-14867881D01*
X10275738Y-14886928D01*
X10266214Y-14896452D01*
X10247167Y-14905976D01*
X10228119Y-14905976D01*
X10209071Y-14896452D01*
X10199548Y-14886928D01*
X10190024Y-14867881D01*
X10180500Y-14829786D01*
X10180500Y-14782167D01*
X10190024Y-14744071D01*
X10199548Y-14725024D01*
X10209071Y-14715500D01*
X10228119Y-14705976D01*
X10370976Y-14705976D02*
X10370976Y-14744071D01*
X10447167Y-14705976D02*
X10447167Y-14744071D01*
X10742405Y-14982167D02*
X10732881Y-14972643D01*
X10713833Y-14944071D01*
X10704310Y-14925024D01*
X10694786Y-14896452D01*
X10685262Y-14848833D01*
X10685262Y-14810738D01*
X10694786Y-14763119D01*
X10704310Y-14734548D01*
X10713833Y-14715500D01*
X10732881Y-14686928D01*
X10742405Y-14677405D01*
X10809071Y-14725024D02*
X10818595Y-14715500D01*
X10837643Y-14705976D01*
X10885262Y-14705976D01*
X10904310Y-14715500D01*
X10913833Y-14725024D01*
X10923357Y-14744071D01*
X10923357Y-14763119D01*
X10913833Y-14791690D01*
X10799548Y-14905976D01*
X10923357Y-14905976D01*
X10999548Y-14725024D02*
X11009071Y-14715500D01*
X11028119Y-14705976D01*
X11075738Y-14705976D01*
X11094786Y-14715500D01*
X11104310Y-14725024D01*
X11113833Y-14744071D01*
X11113833Y-14763119D01*
X11104310Y-14791690D01*
X10990024Y-14905976D01*
X11113833Y-14905976D01*
X11351928Y-14905976D02*
X11351928Y-14705976D01*
X11437643Y-14905976D02*
X11437643Y-14801214D01*
X11428119Y-14782167D01*
X11409071Y-14772643D01*
X11380500Y-14772643D01*
X11361452Y-14782167D01*
X11351928Y-14791690D01*
X11561452Y-14905976D02*
X11542405Y-14896452D01*
X11532881Y-14886928D01*
X11523357Y-14867881D01*
X11523357Y-14810738D01*
X11532881Y-14791690D01*
X11542405Y-14782167D01*
X11561452Y-14772643D01*
X11590024Y-14772643D01*
X11609071Y-14782167D01*
X11618595Y-14791690D01*
X11628119Y-14810738D01*
X11628119Y-14867881D01*
X11618595Y-14886928D01*
X11609071Y-14896452D01*
X11590024Y-14905976D01*
X11561452Y-14905976D01*
X11742405Y-14905976D02*
X11723357Y-14896452D01*
X11713833Y-14877405D01*
X11713833Y-14705976D01*
X11894786Y-14896452D02*
X11875738Y-14905976D01*
X11837643Y-14905976D01*
X11818595Y-14896452D01*
X11809071Y-14877405D01*
X11809071Y-14801214D01*
X11818595Y-14782167D01*
X11837643Y-14772643D01*
X11875738Y-14772643D01*
X11894786Y-14782167D01*
X11904309Y-14801214D01*
X11904309Y-14820262D01*
X11809071Y-14839309D01*
X11980500Y-14896452D02*
X11999548Y-14905976D01*
X12037643Y-14905976D01*
X12056690Y-14896452D01*
X12066214Y-14877405D01*
X12066214Y-14867881D01*
X12056690Y-14848833D01*
X12037643Y-14839309D01*
X12009071Y-14839309D01*
X11990024Y-14829786D01*
X11980500Y-14810738D01*
X11980500Y-14801214D01*
X11990024Y-14782167D01*
X12009071Y-14772643D01*
X12037643Y-14772643D01*
X12056690Y-14782167D01*
X12132881Y-14982167D02*
X12142405Y-14972643D01*
X12161452Y-14944071D01*
X12170976Y-14925024D01*
X12180500Y-14896452D01*
X12190024Y-14848833D01*
X12190024Y-14810738D01*
X12180500Y-14763119D01*
X12170976Y-14734548D01*
X12161452Y-14715500D01*
X12142405Y-14686928D01*
X12132881Y-14677405D01*
D14*
X7118500Y-15027500D02*
X7118500Y-15131500D01*
X7066500Y-15079500D02*
X7170500Y-15079500D01*
D11*
X7532881Y-15169976D02*
X7418595Y-15169976D01*
X7475738Y-15169976D02*
X7475738Y-14969976D01*
X7456690Y-14998548D01*
X7437643Y-15017595D01*
X7418595Y-15027119D01*
X7618595Y-15150928D02*
X7628119Y-15160452D01*
X7618595Y-15169976D01*
X7609071Y-15160452D01*
X7618595Y-15150928D01*
X7618595Y-15169976D01*
X7751928Y-14969976D02*
X7770976Y-14969976D01*
X7790024Y-14979500D01*
X7799548Y-14989024D01*
X7809071Y-15008071D01*
X7818595Y-15046167D01*
X7818595Y-15093786D01*
X7809071Y-15131881D01*
X7799548Y-15150928D01*
X7790024Y-15160452D01*
X7770976Y-15169976D01*
X7751928Y-15169976D01*
X7732881Y-15160452D01*
X7723357Y-15150928D01*
X7713833Y-15131881D01*
X7704309Y-15093786D01*
X7704309Y-15046167D01*
X7713833Y-15008071D01*
X7723357Y-14989024D01*
X7732881Y-14979500D01*
X7751928Y-14969976D01*
X7990024Y-15036643D02*
X7990024Y-15169976D01*
X7942405Y-14960452D02*
X7894786Y-15103309D01*
X8018595Y-15103309D01*
X8132881Y-14969976D02*
X8151928Y-14969976D01*
X8170976Y-14979500D01*
X8180500Y-14989024D01*
X8190024Y-15008071D01*
X8199548Y-15046167D01*
X8199548Y-15093786D01*
X8190024Y-15131881D01*
X8180500Y-15150928D01*
X8170976Y-15160452D01*
X8151928Y-15169976D01*
X8132881Y-15169976D01*
X8113833Y-15160452D01*
X8104309Y-15150928D01*
X8094786Y-15131881D01*
X8085262Y-15093786D01*
X8085262Y-15046167D01*
X8094786Y-15008071D01*
X8104309Y-14989024D01*
X8113833Y-14979500D01*
X8132881Y-14969976D01*
X8285262Y-15169976D02*
X8285262Y-15036643D01*
X8285262Y-15055690D02*
X8294786Y-15046167D01*
X8313833Y-15036643D01*
X8342405Y-15036643D01*
X8361452Y-15046167D01*
X8370976Y-15065214D01*
X8370976Y-15169976D01*
X8370976Y-15065214D02*
X8380500Y-15046167D01*
X8399548Y-15036643D01*
X8428119Y-15036643D01*
X8447167Y-15046167D01*
X8456690Y-15065214D01*
X8456690Y-15169976D01*
X8551929Y-15169976D02*
X8551929Y-15036643D01*
X8551929Y-15055690D02*
X8561452Y-15046167D01*
X8580500Y-15036643D01*
X8609071Y-15036643D01*
X8628119Y-15046167D01*
X8637643Y-15065214D01*
X8637643Y-15169976D01*
X8637643Y-15065214D02*
X8647167Y-15046167D01*
X8666214Y-15036643D01*
X8694786Y-15036643D01*
X8713833Y-15046167D01*
X8723357Y-15065214D01*
X8723357Y-15169976D01*
X9113833Y-14960452D02*
X8942405Y-15217595D01*
X9370976Y-14969976D02*
X9390024Y-14969976D01*
X9409071Y-14979500D01*
X9418595Y-14989024D01*
X9428119Y-15008071D01*
X9437643Y-15046167D01*
X9437643Y-15093786D01*
X9428119Y-15131881D01*
X9418595Y-15150928D01*
X9409071Y-15160452D01*
X9390024Y-15169976D01*
X9370976Y-15169976D01*
X9351929Y-15160452D01*
X9342405Y-15150928D01*
X9332881Y-15131881D01*
X9323357Y-15093786D01*
X9323357Y-15046167D01*
X9332881Y-15008071D01*
X9342405Y-14989024D01*
X9351929Y-14979500D01*
X9370976Y-14969976D01*
X9523357Y-15150928D02*
X9532881Y-15160452D01*
X9523357Y-15169976D01*
X9513833Y-15160452D01*
X9523357Y-15150928D01*
X9523357Y-15169976D01*
X9656690Y-14969976D02*
X9675738Y-14969976D01*
X9694786Y-14979500D01*
X9704310Y-14989024D01*
X9713833Y-15008071D01*
X9723357Y-15046167D01*
X9723357Y-15093786D01*
X9713833Y-15131881D01*
X9704310Y-15150928D01*
X9694786Y-15160452D01*
X9675738Y-15169976D01*
X9656690Y-15169976D01*
X9637643Y-15160452D01*
X9628119Y-15150928D01*
X9618595Y-15131881D01*
X9609071Y-15093786D01*
X9609071Y-15046167D01*
X9618595Y-15008071D01*
X9628119Y-14989024D01*
X9637643Y-14979500D01*
X9656690Y-14969976D01*
X9894786Y-15036643D02*
X9894786Y-15169976D01*
X9847167Y-14960452D02*
X9799548Y-15103309D01*
X9923357Y-15103309D01*
X10037643Y-14969976D02*
X10056690Y-14969976D01*
X10075738Y-14979500D01*
X10085262Y-14989024D01*
X10094786Y-15008071D01*
X10104310Y-15046167D01*
X10104310Y-15093786D01*
X10094786Y-15131881D01*
X10085262Y-15150928D01*
X10075738Y-15160452D01*
X10056690Y-15169976D01*
X10037643Y-15169976D01*
X10018595Y-15160452D01*
X10009071Y-15150928D01*
X9999548Y-15131881D01*
X9990024Y-15093786D01*
X9990024Y-15046167D01*
X9999548Y-15008071D01*
X10009071Y-14989024D01*
X10018595Y-14979500D01*
X10037643Y-14969976D01*
X10199548Y-15169976D02*
X10237643Y-15169976D01*
X10256690Y-15160452D01*
X10266214Y-15150928D01*
X10285262Y-15122357D01*
X10294786Y-15084262D01*
X10294786Y-15008071D01*
X10285262Y-14989024D01*
X10275738Y-14979500D01*
X10256690Y-14969976D01*
X10218595Y-14969976D01*
X10199548Y-14979500D01*
X10190024Y-14989024D01*
X10180500Y-15008071D01*
X10180500Y-15055690D01*
X10190024Y-15074738D01*
X10199548Y-15084262D01*
X10218595Y-15093786D01*
X10256690Y-15093786D01*
X10275738Y-15084262D01*
X10285262Y-15074738D01*
X10294786Y-15055690D01*
X10370976Y-14969976D02*
X10370976Y-15008071D01*
X10447167Y-14969976D02*
X10447167Y-15008071D01*
X10742405Y-15246167D02*
X10732881Y-15236643D01*
X10713833Y-15208071D01*
X10704310Y-15189024D01*
X10694786Y-15160452D01*
X10685262Y-15112833D01*
X10685262Y-15074738D01*
X10694786Y-15027119D01*
X10704310Y-14998548D01*
X10713833Y-14979500D01*
X10732881Y-14950928D01*
X10742405Y-14941405D01*
X10799548Y-14969976D02*
X10923357Y-14969976D01*
X10856690Y-15046167D01*
X10885262Y-15046167D01*
X10904310Y-15055690D01*
X10913833Y-15065214D01*
X10923357Y-15084262D01*
X10923357Y-15131881D01*
X10913833Y-15150928D01*
X10904310Y-15160452D01*
X10885262Y-15169976D01*
X10828119Y-15169976D01*
X10809071Y-15160452D01*
X10799548Y-15150928D01*
X11037643Y-15055690D02*
X11018595Y-15046167D01*
X11009071Y-15036643D01*
X10999548Y-15017595D01*
X10999548Y-15008071D01*
X11009071Y-14989024D01*
X11018595Y-14979500D01*
X11037643Y-14969976D01*
X11075738Y-14969976D01*
X11094786Y-14979500D01*
X11104310Y-14989024D01*
X11113833Y-15008071D01*
X11113833Y-15017595D01*
X11104310Y-15036643D01*
X11094786Y-15046167D01*
X11075738Y-15055690D01*
X11037643Y-15055690D01*
X11018595Y-15065214D01*
X11009071Y-15074738D01*
X10999548Y-15093786D01*
X10999548Y-15131881D01*
X11009071Y-15150928D01*
X11018595Y-15160452D01*
X11037643Y-15169976D01*
X11075738Y-15169976D01*
X11094786Y-15160452D01*
X11104310Y-15150928D01*
X11113833Y-15131881D01*
X11113833Y-15093786D01*
X11104310Y-15074738D01*
X11094786Y-15065214D01*
X11075738Y-15055690D01*
X11351928Y-15169976D02*
X11351928Y-14969976D01*
X11437643Y-15169976D02*
X11437643Y-15065214D01*
X11428119Y-15046167D01*
X11409071Y-15036643D01*
X11380500Y-15036643D01*
X11361452Y-15046167D01*
X11351928Y-15055690D01*
X11561452Y-15169976D02*
X11542405Y-15160452D01*
X11532881Y-15150928D01*
X11523357Y-15131881D01*
X11523357Y-15074738D01*
X11532881Y-15055690D01*
X11542405Y-15046167D01*
X11561452Y-15036643D01*
X11590024Y-15036643D01*
X11609071Y-15046167D01*
X11618595Y-15055690D01*
X11628119Y-15074738D01*
X11628119Y-15131881D01*
X11618595Y-15150928D01*
X11609071Y-15160452D01*
X11590024Y-15169976D01*
X11561452Y-15169976D01*
X11742405Y-15169976D02*
X11723357Y-15160452D01*
X11713833Y-15141405D01*
X11713833Y-14969976D01*
X11894786Y-15160452D02*
X11875738Y-15169976D01*
X11837643Y-15169976D01*
X11818595Y-15160452D01*
X11809071Y-15141405D01*
X11809071Y-15065214D01*
X11818595Y-15046167D01*
X11837643Y-15036643D01*
X11875738Y-15036643D01*
X11894786Y-15046167D01*
X11904309Y-15065214D01*
X11904309Y-15084262D01*
X11809071Y-15103309D01*
X11980500Y-15160452D02*
X11999548Y-15169976D01*
X12037643Y-15169976D01*
X12056690Y-15160452D01*
X12066214Y-15141405D01*
X12066214Y-15131881D01*
X12056690Y-15112833D01*
X12037643Y-15103309D01*
X12009071Y-15103309D01*
X11990024Y-15093786D01*
X11980500Y-15074738D01*
X11980500Y-15065214D01*
X11990024Y-15046167D01*
X12009071Y-15036643D01*
X12037643Y-15036643D01*
X12056690Y-15046167D01*
X12132881Y-15246167D02*
X12142405Y-15236643D01*
X12161452Y-15208071D01*
X12170976Y-15189024D01*
X12180500Y-15160452D01*
X12190024Y-15112833D01*
X12190024Y-15074738D01*
X12180500Y-15027119D01*
X12170976Y-14998548D01*
X12161452Y-14979500D01*
X12142405Y-14950928D01*
X12132881Y-14941405D01*
X7141211Y-15414211D02*
X7141211Y-15272789D01*
X6999789Y-15272789D01*
X6999789Y-15414211D01*
X7141211Y-15414211D01*
X7418595Y-15253024D02*
X7428119Y-15243500D01*
X7447167Y-15233976D01*
X7494786Y-15233976D01*
X7513833Y-15243500D01*
X7523357Y-15253024D01*
X7532881Y-15272071D01*
X7532881Y-15291119D01*
X7523357Y-15319690D01*
X7409071Y-15433976D01*
X7532881Y-15433976D01*
X7618595Y-15414928D02*
X7628119Y-15424452D01*
X7618595Y-15433976D01*
X7609071Y-15424452D01*
X7618595Y-15414928D01*
X7618595Y-15433976D01*
X7809071Y-15233976D02*
X7713833Y-15233976D01*
X7704309Y-15329214D01*
X7713833Y-15319690D01*
X7732881Y-15310167D01*
X7780500Y-15310167D01*
X7799548Y-15319690D01*
X7809071Y-15329214D01*
X7818595Y-15348262D01*
X7818595Y-15395881D01*
X7809071Y-15414928D01*
X7799548Y-15424452D01*
X7780500Y-15433976D01*
X7732881Y-15433976D01*
X7713833Y-15424452D01*
X7704309Y-15414928D01*
X7942405Y-15233976D02*
X7961452Y-15233976D01*
X7980500Y-15243500D01*
X7990024Y-15253024D01*
X7999548Y-15272071D01*
X8009071Y-15310167D01*
X8009071Y-15357786D01*
X7999548Y-15395881D01*
X7990024Y-15414928D01*
X7980500Y-15424452D01*
X7961452Y-15433976D01*
X7942405Y-15433976D01*
X7923357Y-15424452D01*
X7913833Y-15414928D01*
X7904309Y-15395881D01*
X7894786Y-15357786D01*
X7894786Y-15310167D01*
X7904309Y-15272071D01*
X7913833Y-15253024D01*
X7923357Y-15243500D01*
X7942405Y-15233976D01*
X8132881Y-15233976D02*
X8151928Y-15233976D01*
X8170976Y-15243500D01*
X8180500Y-15253024D01*
X8190024Y-15272071D01*
X8199548Y-15310167D01*
X8199548Y-15357786D01*
X8190024Y-15395881D01*
X8180500Y-15414928D01*
X8170976Y-15424452D01*
X8151928Y-15433976D01*
X8132881Y-15433976D01*
X8113833Y-15424452D01*
X8104309Y-15414928D01*
X8094786Y-15395881D01*
X8085262Y-15357786D01*
X8085262Y-15310167D01*
X8094786Y-15272071D01*
X8104309Y-15253024D01*
X8113833Y-15243500D01*
X8132881Y-15233976D01*
X8285262Y-15433976D02*
X8285262Y-15300643D01*
X8285262Y-15319690D02*
X8294786Y-15310167D01*
X8313833Y-15300643D01*
X8342405Y-15300643D01*
X8361452Y-15310167D01*
X8370976Y-15329214D01*
X8370976Y-15433976D01*
X8370976Y-15329214D02*
X8380500Y-15310167D01*
X8399548Y-15300643D01*
X8428119Y-15300643D01*
X8447167Y-15310167D01*
X8456690Y-15329214D01*
X8456690Y-15433976D01*
X8551929Y-15433976D02*
X8551929Y-15300643D01*
X8551929Y-15319690D02*
X8561452Y-15310167D01*
X8580500Y-15300643D01*
X8609071Y-15300643D01*
X8628119Y-15310167D01*
X8637643Y-15329214D01*
X8637643Y-15433976D01*
X8637643Y-15329214D02*
X8647167Y-15310167D01*
X8666214Y-15300643D01*
X8694786Y-15300643D01*
X8713833Y-15310167D01*
X8723357Y-15329214D01*
X8723357Y-15433976D01*
X9113833Y-15224452D02*
X8942405Y-15481595D01*
X9370976Y-15233976D02*
X9390024Y-15233976D01*
X9409071Y-15243500D01*
X9418595Y-15253024D01*
X9428119Y-15272071D01*
X9437643Y-15310167D01*
X9437643Y-15357786D01*
X9428119Y-15395881D01*
X9418595Y-15414928D01*
X9409071Y-15424452D01*
X9390024Y-15433976D01*
X9370976Y-15433976D01*
X9351929Y-15424452D01*
X9342405Y-15414928D01*
X9332881Y-15395881D01*
X9323357Y-15357786D01*
X9323357Y-15310167D01*
X9332881Y-15272071D01*
X9342405Y-15253024D01*
X9351929Y-15243500D01*
X9370976Y-15233976D01*
X9523357Y-15414928D02*
X9532881Y-15424452D01*
X9523357Y-15433976D01*
X9513833Y-15424452D01*
X9523357Y-15414928D01*
X9523357Y-15433976D01*
X9656690Y-15233976D02*
X9675738Y-15233976D01*
X9694786Y-15243500D01*
X9704310Y-15253024D01*
X9713833Y-15272071D01*
X9723357Y-15310167D01*
X9723357Y-15357786D01*
X9713833Y-15395881D01*
X9704310Y-15414928D01*
X9694786Y-15424452D01*
X9675738Y-15433976D01*
X9656690Y-15433976D01*
X9637643Y-15424452D01*
X9628119Y-15414928D01*
X9618595Y-15395881D01*
X9609071Y-15357786D01*
X9609071Y-15310167D01*
X9618595Y-15272071D01*
X9628119Y-15253024D01*
X9637643Y-15243500D01*
X9656690Y-15233976D01*
X9818595Y-15433976D02*
X9856690Y-15433976D01*
X9875738Y-15424452D01*
X9885262Y-15414928D01*
X9904310Y-15386357D01*
X9913833Y-15348262D01*
X9913833Y-15272071D01*
X9904310Y-15253024D01*
X9894786Y-15243500D01*
X9875738Y-15233976D01*
X9837643Y-15233976D01*
X9818595Y-15243500D01*
X9809071Y-15253024D01*
X9799548Y-15272071D01*
X9799548Y-15319690D01*
X9809071Y-15338738D01*
X9818595Y-15348262D01*
X9837643Y-15357786D01*
X9875738Y-15357786D01*
X9894786Y-15348262D01*
X9904310Y-15338738D01*
X9913833Y-15319690D01*
X10028119Y-15319690D02*
X10009071Y-15310167D01*
X9999548Y-15300643D01*
X9990024Y-15281595D01*
X9990024Y-15272071D01*
X9999548Y-15253024D01*
X10009071Y-15243500D01*
X10028119Y-15233976D01*
X10066214Y-15233976D01*
X10085262Y-15243500D01*
X10094786Y-15253024D01*
X10104310Y-15272071D01*
X10104310Y-15281595D01*
X10094786Y-15300643D01*
X10085262Y-15310167D01*
X10066214Y-15319690D01*
X10028119Y-15319690D01*
X10009071Y-15329214D01*
X9999548Y-15338738D01*
X9990024Y-15357786D01*
X9990024Y-15395881D01*
X9999548Y-15414928D01*
X10009071Y-15424452D01*
X10028119Y-15433976D01*
X10066214Y-15433976D01*
X10085262Y-15424452D01*
X10094786Y-15414928D01*
X10104310Y-15395881D01*
X10104310Y-15357786D01*
X10094786Y-15338738D01*
X10085262Y-15329214D01*
X10066214Y-15319690D01*
X10275738Y-15300643D02*
X10275738Y-15433976D01*
X10228119Y-15224452D02*
X10180500Y-15367309D01*
X10304310Y-15367309D01*
X10370976Y-15233976D02*
X10370976Y-15272071D01*
X10447167Y-15233976D02*
X10447167Y-15272071D01*
X10742405Y-15510167D02*
X10732881Y-15500643D01*
X10713833Y-15472071D01*
X10704310Y-15453024D01*
X10694786Y-15424452D01*
X10685262Y-15376833D01*
X10685262Y-15338738D01*
X10694786Y-15291119D01*
X10704310Y-15262548D01*
X10713833Y-15243500D01*
X10732881Y-15214928D01*
X10742405Y-15205405D01*
X10904310Y-15300643D02*
X10904310Y-15433976D01*
X10856690Y-15224452D02*
X10809071Y-15367309D01*
X10932881Y-15367309D01*
X11161452Y-15433976D02*
X11161452Y-15233976D01*
X11247167Y-15433976D02*
X11247167Y-15329214D01*
X11237643Y-15310167D01*
X11218595Y-15300643D01*
X11190024Y-15300643D01*
X11170976Y-15310167D01*
X11161452Y-15319690D01*
X11370976Y-15433976D02*
X11351928Y-15424452D01*
X11342405Y-15414928D01*
X11332881Y-15395881D01*
X11332881Y-15338738D01*
X11342405Y-15319690D01*
X11351928Y-15310167D01*
X11370976Y-15300643D01*
X11399548Y-15300643D01*
X11418595Y-15310167D01*
X11428119Y-15319690D01*
X11437643Y-15338738D01*
X11437643Y-15395881D01*
X11428119Y-15414928D01*
X11418595Y-15424452D01*
X11399548Y-15433976D01*
X11370976Y-15433976D01*
X11551928Y-15433976D02*
X11532881Y-15424452D01*
X11523357Y-15405405D01*
X11523357Y-15233976D01*
X11704309Y-15424452D02*
X11685262Y-15433976D01*
X11647167Y-15433976D01*
X11628119Y-15424452D01*
X11618595Y-15405405D01*
X11618595Y-15329214D01*
X11628119Y-15310167D01*
X11647167Y-15300643D01*
X11685262Y-15300643D01*
X11704309Y-15310167D01*
X11713833Y-15329214D01*
X11713833Y-15348262D01*
X11618595Y-15367309D01*
X11790024Y-15424452D02*
X11809071Y-15433976D01*
X11847167Y-15433976D01*
X11866214Y-15424452D01*
X11875738Y-15405405D01*
X11875738Y-15395881D01*
X11866214Y-15376833D01*
X11847167Y-15367309D01*
X11818595Y-15367309D01*
X11799548Y-15357786D01*
X11790024Y-15338738D01*
X11790024Y-15329214D01*
X11799548Y-15310167D01*
X11818595Y-15300643D01*
X11847167Y-15300643D01*
X11866214Y-15310167D01*
X11942405Y-15510167D02*
X11951928Y-15500643D01*
X11970976Y-15472071D01*
X11980500Y-15453024D01*
X11990024Y-15424452D01*
X11999548Y-15376833D01*
X11999548Y-15338738D01*
X11990024Y-15291119D01*
X11980500Y-15262548D01*
X11970976Y-15243500D01*
X11951928Y-15214928D01*
X11942405Y-15205405D01*
X7070500Y-15763500D02*
X7170500Y-15663500D01*
X7070500Y-15563500D01*
X6970500Y-15663500D01*
X7070500Y-15763500D01*
X7409071Y-15553976D02*
X7532881Y-15553976D01*
X7466214Y-15630167D01*
X7494786Y-15630167D01*
X7513833Y-15639690D01*
X7523357Y-15649214D01*
X7532881Y-15668262D01*
X7532881Y-15715881D01*
X7523357Y-15734928D01*
X7513833Y-15744452D01*
X7494786Y-15753976D01*
X7437643Y-15753976D01*
X7418595Y-15744452D01*
X7409071Y-15734928D01*
X7618595Y-15734928D02*
X7628119Y-15744452D01*
X7618595Y-15753976D01*
X7609071Y-15744452D01*
X7618595Y-15734928D01*
X7618595Y-15753976D01*
X7704309Y-15573024D02*
X7713833Y-15563500D01*
X7732881Y-15553976D01*
X7780500Y-15553976D01*
X7799548Y-15563500D01*
X7809071Y-15573024D01*
X7818595Y-15592071D01*
X7818595Y-15611119D01*
X7809071Y-15639690D01*
X7694786Y-15753976D01*
X7818595Y-15753976D01*
X7942405Y-15553976D02*
X7961452Y-15553976D01*
X7980500Y-15563500D01*
X7990024Y-15573024D01*
X7999548Y-15592071D01*
X8009071Y-15630167D01*
X8009071Y-15677786D01*
X7999548Y-15715881D01*
X7990024Y-15734928D01*
X7980500Y-15744452D01*
X7961452Y-15753976D01*
X7942405Y-15753976D01*
X7923357Y-15744452D01*
X7913833Y-15734928D01*
X7904309Y-15715881D01*
X7894786Y-15677786D01*
X7894786Y-15630167D01*
X7904309Y-15592071D01*
X7913833Y-15573024D01*
X7923357Y-15563500D01*
X7942405Y-15553976D01*
X8132881Y-15553976D02*
X8151928Y-15553976D01*
X8170976Y-15563500D01*
X8180500Y-15573024D01*
X8190024Y-15592071D01*
X8199548Y-15630167D01*
X8199548Y-15677786D01*
X8190024Y-15715881D01*
X8180500Y-15734928D01*
X8170976Y-15744452D01*
X8151928Y-15753976D01*
X8132881Y-15753976D01*
X8113833Y-15744452D01*
X8104309Y-15734928D01*
X8094786Y-15715881D01*
X8085262Y-15677786D01*
X8085262Y-15630167D01*
X8094786Y-15592071D01*
X8104309Y-15573024D01*
X8113833Y-15563500D01*
X8132881Y-15553976D01*
X8285262Y-15753976D02*
X8285262Y-15620643D01*
X8285262Y-15639690D02*
X8294786Y-15630167D01*
X8313833Y-15620643D01*
X8342405Y-15620643D01*
X8361452Y-15630167D01*
X8370976Y-15649214D01*
X8370976Y-15753976D01*
X8370976Y-15649214D02*
X8380500Y-15630167D01*
X8399548Y-15620643D01*
X8428119Y-15620643D01*
X8447167Y-15630167D01*
X8456690Y-15649214D01*
X8456690Y-15753976D01*
X8551929Y-15753976D02*
X8551929Y-15620643D01*
X8551929Y-15639690D02*
X8561452Y-15630167D01*
X8580500Y-15620643D01*
X8609071Y-15620643D01*
X8628119Y-15630167D01*
X8637643Y-15649214D01*
X8637643Y-15753976D01*
X8637643Y-15649214D02*
X8647167Y-15630167D01*
X8666214Y-15620643D01*
X8694786Y-15620643D01*
X8713833Y-15630167D01*
X8723357Y-15649214D01*
X8723357Y-15753976D01*
X9113833Y-15544452D02*
X8942405Y-15801595D01*
X9370976Y-15553976D02*
X9390024Y-15553976D01*
X9409071Y-15563500D01*
X9418595Y-15573024D01*
X9428119Y-15592071D01*
X9437643Y-15630167D01*
X9437643Y-15677786D01*
X9428119Y-15715881D01*
X9418595Y-15734928D01*
X9409071Y-15744452D01*
X9390024Y-15753976D01*
X9370976Y-15753976D01*
X9351929Y-15744452D01*
X9342405Y-15734928D01*
X9332881Y-15715881D01*
X9323357Y-15677786D01*
X9323357Y-15630167D01*
X9332881Y-15592071D01*
X9342405Y-15573024D01*
X9351929Y-15563500D01*
X9370976Y-15553976D01*
X9523357Y-15734928D02*
X9532881Y-15744452D01*
X9523357Y-15753976D01*
X9513833Y-15744452D01*
X9523357Y-15734928D01*
X9523357Y-15753976D01*
X9723357Y-15753976D02*
X9609071Y-15753976D01*
X9666214Y-15753976D02*
X9666214Y-15553976D01*
X9647167Y-15582548D01*
X9628119Y-15601595D01*
X9609071Y-15611119D01*
X9799548Y-15573024D02*
X9809071Y-15563500D01*
X9828119Y-15553976D01*
X9875738Y-15553976D01*
X9894786Y-15563500D01*
X9904310Y-15573024D01*
X9913833Y-15592071D01*
X9913833Y-15611119D01*
X9904310Y-15639690D01*
X9790024Y-15753976D01*
X9913833Y-15753976D01*
X10085262Y-15553976D02*
X10047167Y-15553976D01*
X10028119Y-15563500D01*
X10018595Y-15573024D01*
X9999548Y-15601595D01*
X9990024Y-15639690D01*
X9990024Y-15715881D01*
X9999548Y-15734928D01*
X10009071Y-15744452D01*
X10028119Y-15753976D01*
X10066214Y-15753976D01*
X10085262Y-15744452D01*
X10094786Y-15734928D01*
X10104310Y-15715881D01*
X10104310Y-15668262D01*
X10094786Y-15649214D01*
X10085262Y-15639690D01*
X10066214Y-15630167D01*
X10028119Y-15630167D01*
X10009071Y-15639690D01*
X9999548Y-15649214D01*
X9990024Y-15668262D01*
X10228119Y-15553976D02*
X10247167Y-15553976D01*
X10266214Y-15563500D01*
X10275738Y-15573024D01*
X10285262Y-15592071D01*
X10294786Y-15630167D01*
X10294786Y-15677786D01*
X10285262Y-15715881D01*
X10275738Y-15734928D01*
X10266214Y-15744452D01*
X10247167Y-15753976D01*
X10228119Y-15753976D01*
X10209071Y-15744452D01*
X10199548Y-15734928D01*
X10190024Y-15715881D01*
X10180500Y-15677786D01*
X10180500Y-15630167D01*
X10190024Y-15592071D01*
X10199548Y-15573024D01*
X10209071Y-15563500D01*
X10228119Y-15553976D01*
X10370976Y-15553976D02*
X10370976Y-15592071D01*
X10447167Y-15553976D02*
X10447167Y-15592071D01*
X10742405Y-15830167D02*
X10732881Y-15820643D01*
X10713833Y-15792071D01*
X10704310Y-15773024D01*
X10694786Y-15744452D01*
X10685262Y-15696833D01*
X10685262Y-15658738D01*
X10694786Y-15611119D01*
X10704310Y-15582548D01*
X10713833Y-15563500D01*
X10732881Y-15534928D01*
X10742405Y-15525405D01*
X10809071Y-15573024D02*
X10818595Y-15563500D01*
X10837643Y-15553976D01*
X10885262Y-15553976D01*
X10904310Y-15563500D01*
X10913833Y-15573024D01*
X10923357Y-15592071D01*
X10923357Y-15611119D01*
X10913833Y-15639690D01*
X10799548Y-15753976D01*
X10923357Y-15753976D01*
X11161452Y-15753976D02*
X11161452Y-15553976D01*
X11247167Y-15753976D02*
X11247167Y-15649214D01*
X11237643Y-15630167D01*
X11218595Y-15620643D01*
X11190024Y-15620643D01*
X11170976Y-15630167D01*
X11161452Y-15639690D01*
X11370976Y-15753976D02*
X11351928Y-15744452D01*
X11342405Y-15734928D01*
X11332881Y-15715881D01*
X11332881Y-15658738D01*
X11342405Y-15639690D01*
X11351928Y-15630167D01*
X11370976Y-15620643D01*
X11399548Y-15620643D01*
X11418595Y-15630167D01*
X11428119Y-15639690D01*
X11437643Y-15658738D01*
X11437643Y-15715881D01*
X11428119Y-15734928D01*
X11418595Y-15744452D01*
X11399548Y-15753976D01*
X11370976Y-15753976D01*
X11551928Y-15753976D02*
X11532881Y-15744452D01*
X11523357Y-15725405D01*
X11523357Y-15553976D01*
X11704309Y-15744452D02*
X11685262Y-15753976D01*
X11647167Y-15753976D01*
X11628119Y-15744452D01*
X11618595Y-15725405D01*
X11618595Y-15649214D01*
X11628119Y-15630167D01*
X11647167Y-15620643D01*
X11685262Y-15620643D01*
X11704309Y-15630167D01*
X11713833Y-15649214D01*
X11713833Y-15668262D01*
X11618595Y-15687309D01*
X11790024Y-15744452D02*
X11809071Y-15753976D01*
X11847167Y-15753976D01*
X11866214Y-15744452D01*
X11875738Y-15725405D01*
X11875738Y-15715881D01*
X11866214Y-15696833D01*
X11847167Y-15687309D01*
X11818595Y-15687309D01*
X11799548Y-15677786D01*
X11790024Y-15658738D01*
X11790024Y-15649214D01*
X11799548Y-15630167D01*
X11818595Y-15620643D01*
X11847167Y-15620643D01*
X11866214Y-15630167D01*
X11942405Y-15830167D02*
X11951928Y-15820643D01*
X11970976Y-15792071D01*
X11980500Y-15773024D01*
X11990024Y-15744452D01*
X11999548Y-15696833D01*
X11999548Y-15658738D01*
X11990024Y-15611119D01*
X11980500Y-15582548D01*
X11970976Y-15563500D01*
X11951928Y-15534928D01*
X11942405Y-15525405D01*
M02*
