G04 #@! TF.GenerationSoftware,KiCad,Pcbnew,(6.0.4)*
G04 #@! TF.CreationDate,2022-04-10T11:41:21+03:00*
G04 #@! TF.ProjectId,volvo_bt_board,766f6c76-6f5f-4627-945f-626f6172642e,rev?*
G04 #@! TF.SameCoordinates,Original*
G04 #@! TF.FileFunction,Soldermask,Top*
G04 #@! TF.FilePolarity,Negative*
%FSLAX46Y46*%
G04 Gerber Fmt 4.6, Leading zero omitted, Abs format (unit mm)*
G04 Created by KiCad (PCBNEW (6.0.4)) date 2022-04-10 11:41:21*
%MOMM*%
%LPD*%
G01*
G04 APERTURE LIST*
%ADD10C,5.000000*%
%ADD11R,1.700000X1.700000*%
%ADD12C,2.082800*%
%ADD13R,1.600000X1.600000*%
%ADD14O,1.600000X1.600000*%
%ADD15O,1.700000X1.700000*%
%ADD16C,4.000000*%
%ADD17C,1.600000*%
%ADD18R,1.560000X1.560000*%
%ADD19C,1.560000*%
G04 APERTURE END LIST*
D10*
X144780000Y-132080000D03*
D11*
X130175000Y-73025000D03*
X104775000Y-73025000D03*
D10*
X93345000Y-57785000D03*
D11*
X104775000Y-57785000D03*
D12*
X135255000Y-97155000D03*
X137795000Y-97155000D03*
D10*
X161290000Y-57785000D03*
D13*
X160665000Y-94615000D03*
D14*
X160665000Y-97155000D03*
X160665000Y-99695000D03*
X160665000Y-102235000D03*
X160665000Y-104775000D03*
X160665000Y-107315000D03*
X160665000Y-109855000D03*
X160665000Y-112395000D03*
X160665000Y-114935000D03*
X160665000Y-117475000D03*
X160665000Y-120015000D03*
X160665000Y-122555000D03*
X160665000Y-125095000D03*
X160665000Y-127635000D03*
X160665000Y-130175000D03*
X175905000Y-130175000D03*
X175905000Y-127635000D03*
X175905000Y-125095000D03*
X175905000Y-122555000D03*
X175905000Y-120015000D03*
X175905000Y-117475000D03*
X175905000Y-114935000D03*
X175905000Y-112395000D03*
X175905000Y-109855000D03*
X175905000Y-107315000D03*
X175905000Y-104775000D03*
X175905000Y-102235000D03*
X175905000Y-99695000D03*
X175905000Y-97155000D03*
X175905000Y-94615000D03*
D12*
X88265000Y-130810000D03*
X88265000Y-133350000D03*
D11*
X96520000Y-120005000D03*
D15*
X96520000Y-117465000D03*
X96520000Y-114925000D03*
X96520000Y-112385000D03*
X96520000Y-109845000D03*
X96520000Y-107305000D03*
X96520000Y-104765000D03*
X96520000Y-102225000D03*
X96520000Y-99685000D03*
D10*
X76835000Y-132080000D03*
D12*
X143510000Y-104775000D03*
X153670000Y-104775000D03*
X153670000Y-102235000D03*
X153670000Y-97155000D03*
X153670000Y-99695000D03*
X153670000Y-107315000D03*
X153670000Y-109855000D03*
X143510000Y-102235000D03*
X143510000Y-97155000D03*
X143510000Y-99695000D03*
X143510000Y-107315000D03*
X143510000Y-109855000D03*
D16*
X80770331Y-52095000D03*
X80770331Y-77095000D03*
D13*
X82190331Y-59055000D03*
D17*
X82190331Y-61825000D03*
X82190331Y-64595000D03*
X82190331Y-67365000D03*
X82190331Y-70135000D03*
X79350331Y-60440000D03*
X79350331Y-63210000D03*
X79350331Y-65980000D03*
X79350331Y-68750000D03*
D18*
X104775000Y-89460000D03*
D19*
X104775000Y-92000000D03*
X104775000Y-94540000D03*
X104775000Y-97080000D03*
X104775000Y-99620000D03*
X104775000Y-102160000D03*
X104775000Y-104700000D03*
X104775000Y-107240000D03*
X104775000Y-109780000D03*
X104775000Y-112320000D03*
X104775000Y-114860000D03*
X104775000Y-117400000D03*
X104775000Y-119940000D03*
X104775000Y-122480000D03*
X104775000Y-125020000D03*
X104775000Y-127560000D03*
X104775000Y-130100000D03*
X104775000Y-132640000D03*
X104775000Y-135180000D03*
X130175000Y-89460000D03*
X130175000Y-92000000D03*
X130175000Y-94540000D03*
X130175000Y-97080000D03*
X130175000Y-99620000D03*
X130175000Y-102160000D03*
X130175000Y-104700000D03*
X130175000Y-107240000D03*
X130175000Y-109780000D03*
X130175000Y-112320000D03*
X130175000Y-114860000D03*
X130175000Y-117400000D03*
X130175000Y-119940000D03*
X130175000Y-122480000D03*
X130175000Y-125020000D03*
X130175000Y-127560000D03*
X130175000Y-130100000D03*
X130175000Y-132640000D03*
X130175000Y-135180000D03*
D12*
X82550000Y-133350000D03*
X82550000Y-130810000D03*
X137795000Y-99695000D03*
X135255000Y-99695000D03*
D11*
X130175000Y-57785000D03*
D12*
X135255000Y-114935000D03*
X137795000Y-114935000D03*
D11*
X76200000Y-117465000D03*
D15*
X76200000Y-114925000D03*
X76200000Y-112385000D03*
X76200000Y-109845000D03*
X76200000Y-107305000D03*
X76200000Y-104765000D03*
M02*
