M48
; DRILL file {KiCad (6.0.4)} date Sun Apr 10 11:43:18 2022
; FORMAT={-:-/ absolute / metric / decimal}
; #@! TF.CreationDate,2022-04-10T11:43:18+03:00
; #@! TF.GenerationSoftware,Kicad,Pcbnew,(6.0.4)
; #@! TF.FileFunction,Plated,1,2,PTH
FMAT,2
METRIC
; #@! TA.AperFunction,Plated,PTH,ComponentDrill
T1C1.000
; #@! TA.AperFunction,Plated,PTH,ComponentDrill
T2C1.016
; #@! TA.AperFunction,Plated,PTH,ComponentDrill
T3C1.040
; #@! TA.AperFunction,Plated,PTH,ComponentDrill
T4C2.500
; #@! TA.AperFunction,Plated,PTH,ComponentDrill
T5C3.200
%
G90
G05
T1
X76.2Y-104.765
X76.2Y-107.305
X76.2Y-109.845
X76.2Y-112.385
X76.2Y-114.925
X76.2Y-117.465
X79.35Y-60.44
X79.35Y-63.21
X79.35Y-65.98
X79.35Y-68.75
X82.19Y-59.055
X82.19Y-61.825
X82.19Y-64.595
X82.19Y-67.365
X82.19Y-70.135
X96.52Y-99.685
X96.52Y-102.225
X96.52Y-104.765
X96.52Y-107.305
X96.52Y-109.845
X96.52Y-112.385
X96.52Y-114.925
X96.52Y-117.465
X96.52Y-120.005
X104.775Y-57.785
X104.775Y-73.025
X130.175Y-57.785
X130.175Y-73.025
X160.665Y-94.615
X160.665Y-97.155
X160.665Y-99.695
X160.665Y-102.235
X160.665Y-104.775
X160.665Y-107.315
X160.665Y-109.855
X160.665Y-112.395
X160.665Y-114.935
X160.665Y-117.475
X160.665Y-120.015
X160.665Y-122.555
X160.665Y-125.095
X160.665Y-127.635
X160.665Y-130.175
X175.905Y-94.615
X175.905Y-97.155
X175.905Y-99.695
X175.905Y-102.235
X175.905Y-104.775
X175.905Y-107.315
X175.905Y-109.855
X175.905Y-112.395
X175.905Y-114.935
X175.905Y-117.475
X175.905Y-120.015
X175.905Y-122.555
X175.905Y-125.095
X175.905Y-127.635
X175.905Y-130.175
T2
X82.55Y-130.81
X82.55Y-133.35
X88.265Y-130.81
X88.265Y-133.35
X135.255Y-97.155
X135.255Y-99.695
X135.255Y-114.935
X137.795Y-97.155
X137.795Y-99.695
X137.795Y-114.935
X143.51Y-97.155
X143.51Y-99.695
X143.51Y-102.235
X143.51Y-104.775
X143.51Y-107.315
X143.51Y-109.855
X153.67Y-97.155
X153.67Y-99.695
X153.67Y-102.235
X153.67Y-104.775
X153.67Y-107.315
X153.67Y-109.855
T3
X104.775Y-89.46
X104.775Y-92.0
X104.775Y-94.54
X104.775Y-97.08
X104.775Y-99.62
X104.775Y-102.16
X104.775Y-104.7
X104.775Y-107.24
X104.775Y-109.78
X104.775Y-112.32
X104.775Y-114.86
X104.775Y-117.4
X104.775Y-119.94
X104.775Y-122.48
X104.775Y-125.02
X104.775Y-127.56
X104.775Y-130.1
X104.775Y-132.64
X104.775Y-135.18
X130.175Y-89.46
X130.175Y-92.0
X130.175Y-94.54
X130.175Y-97.08
X130.175Y-99.62
X130.175Y-102.16
X130.175Y-104.7
X130.175Y-107.24
X130.175Y-109.78
X130.175Y-112.32
X130.175Y-114.86
X130.175Y-117.4
X130.175Y-119.94
X130.175Y-122.48
X130.175Y-125.02
X130.175Y-127.56
X130.175Y-130.1
X130.175Y-132.64
X130.175Y-135.18
T4
X76.835Y-132.08
X93.345Y-57.785
X144.78Y-132.08
X161.29Y-57.785
T5
X80.77Y-52.095
X80.77Y-77.095
T0
M30
